<svg xmlns="http://www.w3.org/2000/svg" width="46" height="46" viewBox="0 0 46 46"><defs><style>.a{fill:#1b17cf;}.b{fill:#fff;}.c{fill:none;stroke:#1b17cf;stroke-linecap:round;stroke-miterlimit:10;}</style></defs><path class="a" d="M23,45.5A22.5,22.5,0,1,0,.5,23,22.5,22.5,0,0,0,23,45.5Z"/><path class="b" d="M32.1517,15.2905V32.9143l-3.1261-2.4615H16.0607a2.2091,2.2091,0,0,1-2.2124-2.2049V15.2905a2.209,2.209,0,0,1,2.2124-2.2048H29.9393A2.209,2.209,0,0,1,32.1517,15.2905Z"/><path class="c" d="M17.0481,24.4625a8.421,8.421,0,0,0,6.5727,2.2356,8.1709,8.1709,0,0,0,5.3058-2.2375l.0253-.0262"/></svg>