<svg xmlns="http://www.w3.org/2000/svg" width="46" height="46" viewBox="0 0 46 46"><defs><style>.a,.d{fill:none;}.b{fill:#1b17cf;}.c{fill:#fff;}.d{stroke:#1b17cf;stroke-linecap:round;stroke-miterlimit:10;}</style></defs><rect class="a" x="0.9387" y="0.9185" width="45" height="45"/><path class="b" d="M23,45.5A22.5,22.5,0,1,0,.5,23,22.5,22.5,0,0,0,23,45.5Z"/><path class="c" d="M35.12,14.42V37.76L30.98,34.5H13.81a2.9256,2.9256,0,0,1-2.93-2.92V14.42a2.9256,2.9256,0,0,1,2.93-2.92H32.19A2.9256,2.9256,0,0,1,35.12,14.42Z"/><path class="d" d="M15.1176,26.5669a11.1519,11.1519,0,0,0,8.7046,2.9606,10.82,10.82,0,0,0,7.0266-2.9632l.0336-.0347"/></svg>