<svg xmlns="http://www.w3.org/2000/svg" width="20" height="20" viewBox="0 0 20 20"><defs><style>.a{fill:#cd5257;}.b{fill:#fff;}</style></defs><path class="a" d="M8.7658,3.1365A6.6914,6.6914,0,1,1,2.0744,9.8278,6.6989,6.6989,0,0,1,8.7658,3.1365m0-1.5745a8.2658,8.2658,0,1,0,8.2658,8.2658A8.2658,8.2658,0,0,0,8.7658,1.562Z"/><path class="b" d="M19.44,13.8776a.77.77,0,0,1-.3158.3219,1.6475,1.6475,0,0,1-.71.1953l-.0094.0006-1.9567.13,1.0283,2.5486a.5357.5357,0,0,1-.0062.41.568.568,0,0,1-.2829.2938l-.0169.007-1.52.618a.2448.2448,0,0,1-.0323.0105.5718.5718,0,0,1-.3855-.0188.54.54,0,0,1-.2918-.29l-1.0394-2.5427-1.5,1.2773a1.6564,1.6564,0,0,1-.6449.3549.7733.7733,0,0,1-.4512-.01.5967.5967,0,0,1-.3471-.3295,1.0763,1.0763,0,0,1-.0756-.5146l.5818-9.5275.002-.0212a.3952.3952,0,0,1,.0573-.1642A.3877.3877,0,0,1,11.67,6.488a.2179.2179,0,0,1,.0823-.0269.3776.3776,0,0,1,.1668.0044.3879.3879,0,0,1,.1439.0686.2276.2276,0,0,1,.0411.0337l7.05,6.4108a1.0939,1.0939,0,0,1,.3045.421A.5913.5913,0,0,1,19.44,13.8776Z"/><path d="M15.483,17.9335l.1079-.0094A.2357.2357,0,0,0,15.483,17.9335ZM19.4589,13.4a1.0939,1.0939,0,0,0-.3045-.421l-7.05-6.4108a.2276.2276,0,0,0-.0411-.0337.3879.3879,0,0,0-.1439-.0686.3776.3776,0,0,0-.1668-.0044.2179.2179,0,0,0-.0823.0269.3877.3877,0,0,0-.1473.1386.3952.3952,0,0,0-.0573.1642l-.002.0212L10.8819,16.34a1.0763,1.0763,0,0,0,.0756.5146.5967.5967,0,0,0,.3471.3295.7733.7733,0,0,0,.4512.01,1.6564,1.6564,0,0,0,.6449-.3549l1.5-1.2773L14.94,18.1043a.54.54,0,0,0,.2918.29.5718.5718,0,0,0,.3855.0188.2448.2448,0,0,0,.0323-.0105l1.52-.618.0169-.007a.568.568,0,0,0,.2829-.2938.5357.5357,0,0,0,.0062-.41l-1.0283-2.5486,1.9567-.13.0094-.0006a1.6475,1.6475,0,0,0,.71-.1953.77.77,0,0,0,.3158-.3219A.5913.5913,0,0,0,19.4589,13.4Zm-.4652.26a.29.29,0,0,1-.1191.11,1.1661,1.1661,0,0,1-.492.1292l-.0094.0006-2.2993.1528a.249.249,0,0,0-.2321.2643.245.245,0,0,0,.0174.0773l-.0009,0L17.0155,17.26a.0475.0475,0,0,1-.0033.03.0721.0721,0,0,1-.0309.0341l-1.4983.6089-.002.0007-.0009,0-.0148.0055a.0678.0678,0,0,1-.04-.0047.0432.0432,0,0,1-.0235-.0192l-1.17-2.86a.2486.2486,0,0,0-.3243-.1365.268.268,0,0,0-.0674.0411l-1.7621,1.5a1.1525,1.1525,0,0,1-.4416.2512.2875.2875,0,0,1-.1614.0038.1161.1161,0,0,1-.0629-.0657.6023.6023,0,0,1-.0317-.2775l.5656-9.2754,6.8766,6.2512a.61.61,0,0,1,.17.2209A.1136.1136,0,0,1,18.9937,13.66Z"/></svg>