<svg xmlns="http://www.w3.org/2000/svg" width="22" height="22" viewBox="0 0 22 22"><defs><style>.a{fill:#cd5257;}.b{fill:#fff;}</style></defs><path class="a" d="M10.5,2.5A8.5,8.5,0,1,1,2,11a8.51,8.51,0,0,1,8.5-8.5m0-2A10.5,10.5,0,1,0,21,11,10.5,10.5,0,0,0,10.5.5Z"/><path class="b" d="M21.1,14.836a.7362.7362,0,0,1-.3383.2675,1.5766,1.5766,0,0,1-.6967.1l-.0091-.0006-1.8718-.1116.6692,2.5413a.5124.5124,0,0,1-.0551.3879.5433.5433,0,0,1-.3037.2446l-.0168.0047-1.5164.4036a.226.226,0,0,1-.0319.006.5468.5468,0,0,1-.3634-.0641.5165.5165,0,0,1-.242-.31l-.68-2.537-1.5766,1.0314a1.582,1.582,0,0,1-.6544.2592.7384.7384,0,0,1-.4268-.0638.5708.5708,0,0,1-.29-.3544,1.0307,1.0307,0,0,1-.01-.4971L14.3826,7.175l.0045-.02a.3771.3771,0,0,1,.0741-.1488.37.37,0,0,1,.1564-.1138.2076.2076,0,0,1,.0813-.0156.3611.3611,0,0,1,.1577.0242.3724.3724,0,0,1,.1283.0823.2191.2191,0,0,1,.0349.037l5.9175,6.9286a1.0465,1.0465,0,0,1,.2383.4359A.5653.5653,0,0,1,21.1,14.836Z"/><path d="M16.8591,18.2082l.1035.0041A.225.225,0,0,0,16.8591,18.2082Zm4.3165-3.8233a1.0465,1.0465,0,0,0-.2383-.4359L15.02,7.02a.2191.2191,0,0,0-.0349-.037.3724.3724,0,0,0-.1283-.0823.3611.3611,0,0,0-.1577-.0242.2076.2076,0,0,0-.0813.0156.37.37,0,0,0-.1564.1138.3771.3771,0,0,0-.0741.1488l-.0045.02-1.6967,8.9683a1.0307,1.0307,0,0,0,.01.4971.5708.5708,0,0,0,.29.3544.7384.7384,0,0,0,.4268.0638,1.582,1.582,0,0,0,.6544-.2592l1.5766-1.0314.68,2.537a.5165.5165,0,0,0,.242.31.5468.5468,0,0,0,.3634.0641.226.226,0,0,0,.0319-.006l1.5164-.4036.0168-.0047a.5433.5433,0,0,0,.3037-.2446.5124.5124,0,0,0,.0551-.3879l-.6692-2.5413,1.8718.1116.0091.0006a1.5766,1.5766,0,0,0,.6967-.1A.7362.7362,0,0,0,21.1,14.836.5653.5653,0,0,0,21.1756,14.3849Zm-.4726.1908a.2767.2767,0,0,1-.1261.09,1.1162,1.1162,0,0,1-.4822.0634l-.0091-.0006-2.2-.1313a.2381.2381,0,0,0-.2519.2229.2318.2318,0,0,0,.0072.0753l-.0009,0,.7533,2.8585a.0457.0457,0,0,1-.0067.0284.0691.0691,0,0,1-.0334.0286l-1.4946.3976-.0019,0-.0009,0-.0146.0034a.0658.0658,0,0,1-.0379-.0093.0415.0415,0,0,1-.02-.021l-.7665-2.8539a.2378.2378,0,0,0-.2913-.1685.2569.2569,0,0,0-.0689.031l-1.8518,1.2113a1.1035,1.1035,0,0,1-.4491.1852.2739.2739,0,0,1-.1535-.0158.1108.1108,0,0,1-.0518-.07.5749.5749,0,0,1,.0033-.267l1.651-8.7311,5.7722,6.7564a.5835.5835,0,0,1,.1352.23A.1081.1081,0,0,1,20.703,14.5757Z"/></svg>