<svg xmlns="http://www.w3.org/2000/svg" width="20" height="20" viewBox="0 0 20 20"><defs><style>.a{fill:#fe3333;}</style></defs><path class="a" d="M7.9448,8.3307c-.016,1.2429-.0066,2.4868-.0066,3.73,0,1.2787-.0085,2.5566.0066,3.8353.0029.2643-.066.3587-.3312.3313a2.8931,2.8931,0,0,0-.6323.0009c-.3313.0406-.4351-.06-.4323-.4124.017-2.2989.0076-4.5979.01-6.8968,0-.3143-.1028-.73.0557-.9174.1859-.218.6181-.03.9381-.0773C7.8948,7.8739,7.9486,8.0278,7.9448,8.3307Z"/><path class="a" d="M10.7034,9.0272c.0057,2.2753-.0019,4.55.0094,6.8251.001.2765-.0462.41-.3548.3747-.336-.0378-.78.1387-.9862-.0632-.2209-.218-.067-.6654-.07-1.0108-.01-1.0315-.0037-2.0639-.0037-3.0955,0-1.2787.0047-2.5566-.0048-3.8353-.0009-.22.0444-.3162.2879-.2992.3595.0264.8343-.1151,1.0523.0651C10.8629,8.1769,10.7024,8.6686,10.7034,9.0272Z"/><path class="a" d="M13.4469,8.963c.0066,2.3009-.0019,4.6008.01,6.9016.001.2935-.0745.3983-.369.3615-.3227-.04-.7559.1387-.9428-.0727-.16-.1822-.0547-.604-.0557-.9192-.0028-1.0683-.0009-2.1367-.0009-3.205,0-1.2551.0057-2.5113-.0047-3.7674-.0028-.2406.0255-.369.3143-.34.3359.0349.78-.1029.9843.067C13.5988,8.1684,13.4459,8.627,13.4469,8.963Z"/><path class="a" d="M17.4106,5.1446c-.4134.0793-.4964-.1028-.49-.49.0122-.6757-.2067-.8635-.8966-.8692-.7163-.0066-1.4326-.0207-2.1479.0019-.3.0085-.387-.06-.3926-.3775a2.4373,2.4373,0,0,0-2.466-2.4075c-.7494.0368-1.5025.0151-2.2537.0133a1.7415,1.7415,0,0,0-.8107.2A2.4369,2.4369,0,0,0,6.5405,3.4733c-.0047.2453-.0651.3161-.3133.3123C5.43,3.7724,4.6314,3.7771,3.8329,3.79a.6618.6618,0,0,0-.74.7106,1.4742,1.4742,0,0,0-.0038.3162c.0368.26-.0538.3737-.3228.3265-.2925-.0519-.43.0358-.3879.369.0416.3227-.0943.7578.0718.95.1925.2228.6417.0906.973.0718.3359-.02.3727.1123.3727.3992-.0056,3.3455.0189,6.69-.0084,10.0348a2.1633,2.1633,0,0,0,1.6845,1.9743,1.2783,1.2783,0,0,0,.3841.02q4.0614.0013,8.1228.0028a.7226.7226,0,0,1,.3794.034h.1406c.0142-.0547.0557-.0613.1048-.0679a2.1417,2.1417,0,0,0,1.62-1.9517c-.0406-2.03-.0085-4.0609-.0038-6.0909.0028-1.35.0151-2.6991.01-4.0487-.001-.2284.0557-.3142.2935-.2991.2926.0179.587-.0066.88-.0029.1387.0019.218-.0207.2151-.1878-.0056-.3284.0019-.6568.0151-.9852C17.6408,5.1984,17.5757,5.1135,17.4106,5.1446ZM7.97,3.4393a1.0079,1.0079,0,0,1,1.0834-1.006q1.0193-.0171,2.0385.0066a1.0482,1.0482,0,0,1,.9541,1.2c-.03.1963-.1576.1368-.2585.1377-.5974.0048-1.1958.0029-1.7932.0029-.5747,0-1.1494-.018-1.7232.0066C7.98,3.8,7.94,3.6818,7.97,3.4393ZM14.836,16.5922c0,.0935-.0037.1878-.0085.2813-.03.5134-.2368.7144-.7512.7163q-2.994.007-5.9871.0085c-.7049.0009-1.409-.0029-2.113-.0076-.5606-.0038-.7748-.2038-.7767-.7531-.0057-1.6553-.0019-3.3107-.0019-4.966H5.1551c0-1.6666.0066-3.3333-.0056-5.0009-.0019-.2661.0726-.3312.335-.33q4.5257.0143,9.0514.0019c.2246-.0009.3294.0245.3285.2945C14.8474,10.0889,14.8436,13.34,14.836,16.5922Z"/><path class="a" d="M5.4719,18.9429c.9709-.0044,1.9419-.0116,2.9128-.0127q2.8095-.0031,5.6189.0029c.1177,0,.2587-.0675.355.0669H5.4816A.1709.1709,0,0,1,5.4719,18.9429Z"/><path class="a" d="M7.9448,8.3307c-.016,1.2429-.0066,2.4868-.0066,3.73,0,1.2787-.0085,2.5566.0066,3.8353.0029.2643-.066.3587-.3312.3313a2.8931,2.8931,0,0,0-.6323.0009c-.3313.0406-.4351-.06-.4323-.4124.017-2.2989.0076-4.5979.01-6.8968,0-.3143-.1028-.73.0557-.9174.1859-.218.6181-.03.9381-.0773C7.8948,7.8739,7.9486,8.0278,7.9448,8.3307Z"/><path class="a" d="M10.7034,9.0272c.0057,2.2753-.0019,4.55.0094,6.8251.001.2765-.0462.41-.3548.3747-.336-.0378-.78.1387-.9862-.0632-.2209-.218-.067-.6654-.07-1.0108-.01-1.0315-.0037-2.0639-.0037-3.0955,0-1.2787.0047-2.5566-.0048-3.8353-.0009-.22.0444-.3162.2879-.2992.3595.0264.8343-.1151,1.0523.0651C10.8629,8.1769,10.7024,8.6686,10.7034,9.0272Z"/><path class="a" d="M13.4469,8.963c.0066,2.3009-.0019,4.6008.01,6.9016.001.2935-.0745.3983-.369.3615-.3227-.04-.7559.1387-.9428-.0727-.16-.1822-.0547-.604-.0557-.9192-.0028-1.0683-.0009-2.1367-.0009-3.205,0-1.2551.0057-2.5113-.0047-3.7674-.0028-.2406.0255-.369.3143-.34.3359.0349.78-.1029.9843.067C13.5988,8.1684,13.4459,8.627,13.4469,8.963Z"/><path class="a" d="M10.7034,9.0272c.0057,2.2753-.0019,4.55.0094,6.8251.001.2765-.0462.41-.3548.3747-.336-.0378-.78.1387-.9862-.0632-.2209-.218-.067-.6654-.07-1.0108-.01-1.0315-.0037-2.0639-.0037-3.0955,0-1.2787.0047-2.5566-.0048-3.8353-.0009-.22.0444-.3162.2879-.2992.3595.0264.8343-.1151,1.0523.0651C10.8629,8.1769,10.7024,8.6686,10.7034,9.0272Z"/><path class="a" d="M7.9448,15.8957c.0029.2643-.066.3587-.3312.3313a2.8931,2.8931,0,0,0-.6323.0009c-.3313.0406-.4351-.06-.4323-.4124.017-2.2989.0076-4.5979.01-6.8968,0-.3143-.1028-.73.0557-.9174.1859-.218.6181-.03.9381-.0773.3416-.05.3954.1038.3916.4067-.016,1.2429-.0066,2.4868-.0066,3.73C7.9382,13.3391,7.93,14.617,7.9448,15.8957Z"/><path class="a" d="M13.4469,8.963c.0066,2.3009-.0019,4.6008.01,6.9016.001.2935-.0745.3983-.369.3615-.3227-.04-.7559.1387-.9428-.0727-.16-.1822-.0547-.604-.0557-.9192-.0028-1.0683-.0009-2.1367-.0009-3.205,0-1.2551.0057-2.5113-.0047-3.7674-.0028-.2406.0255-.369.3143-.34.3359.0349.78-.1029.9843.067C13.5988,8.1684,13.4459,8.627,13.4469,8.963Z"/></svg>