<svg xmlns="http://www.w3.org/2000/svg" width="22" height="22" viewBox="0 0 22 22"><defs><style>.a{fill:#fe3333;}</style></defs><path class="a" d="M8.6023,9.0525c-.0187,1.45-.0077,2.9012-.0077,4.3513,0,1.4919-.01,2.9827.0077,4.4746.0033.3083-.0771.4184-.3865.3864a3.3745,3.3745,0,0,0-.7376.0011c-.3865.0474-.5076-.07-.5043-.4811.02-2.6821.0088-5.3642.0121-8.0464,0-.3666-.12-.8522.0649-1.07.217-.2543.7212-.0352,1.0945-.09C8.5439,8.52,8.6067,8.6991,8.6023,9.0525Z"/><path class="a" d="M11.8206,9.8651c.0066,2.6545-.0022,5.308.011,7.9626.0011.3226-.0539.4779-.414.4371-.3919-.044-.9094.1619-1.1505-.0737-.2577-.2544-.0782-.7763-.0815-1.1792-.0121-1.2035-.0044-2.408-.0044-3.6114,0-1.4919.0055-2.9827-.0055-4.4746-.0011-.2566.0517-.3689.3358-.3491.4195.0309.9733-.1343,1.2276.076C12.0067,8.873,11.82,9.4467,11.8206,9.8651Z"/><path class="a" d="M15.0213,9.79c.0077,2.6843-.0022,5.3675.0121,8.0518.0011.3425-.0869.4647-.4305.4217-.3765-.0462-.8819.1619-1.1-.0847-.1872-.2125-.0639-.7047-.065-1.0725-.0033-1.2463-.0011-2.4927-.0011-3.7391,0-1.4643.0066-2.93-.0055-4.3953-.0033-.2807.03-.43.3667-.3964.3919.0408.9105-.12,1.1484.0782C15.1986,8.8631,15.02,9.3982,15.0213,9.79Z"/><path class="a" d="M19.6457,5.3354c-.4823.0925-.5792-.12-.5715-.5714.0143-.7884-.2411-1.0075-1.046-1.0141-.8356-.0077-1.6713-.0242-2.5059.0022-.35.01-.4514-.07-.458-.44A2.8433,2.8433,0,0,0,12.1873.503C11.313.5459,10.4344.5206,9.558.5184a2.0314,2.0314,0,0,0-.9458.2334A2.8426,2.8426,0,0,0,6.964,3.3855c-.0055.2862-.076.3688-.3656.3644-.93-.0154-1.8618-.01-2.7933.0055a.7722.7722,0,0,0-.8632.8291,1.7243,1.7243,0,0,0-.0044.3688c.0429.3028-.0628.4361-.3766.381-.3413-.0606-.502.0418-.4525.4305.0485.3766-.11.8841.0837,1.1087.2246.26.7487.1057,1.1352.0837.3919-.0231.4349.131.4349.4658-.0066,3.9031.022,7.8052-.01,11.7072a2.5237,2.5237,0,0,0,1.9653,2.3034,1.4929,1.4929,0,0,0,.4481.0231q4.7384.0016,9.4766.0033a.8421.8421,0,0,1,.4426.04h.1641c.0165-.0639.0649-.0716.1222-.0793a2.4984,2.4984,0,0,0,1.89-2.2769c-.0474-2.3684-.01-4.7378-.0044-7.1061.0033-1.5745.0176-3.149.0121-4.7234-.0011-.2665.0649-.3667.3424-.3491.3413.0209.6848-.0077,1.0262-.0033.1618.0022.2543-.0242.251-.2191-.0066-.3831.0022-.7663.0176-1.1495C19.9143,5.3982,19.8383,5.2991,19.6457,5.3354ZM8.632,3.3458A1.176,1.176,0,0,1,9.896,2.1721q1.1892-.02,2.3782.0077a1.2231,1.2231,0,0,1,1.1132,1.3995c-.0352.229-.1839.16-.3017.1607-.6969.0055-1.395.0033-2.092.0033-.6705,0-1.341-.0209-2.01.0077C8.643,3.7664,8.5968,3.6288,8.632,3.3458Zm8.01,15.3451c0,.109-.0044.2191-.01.3281-.0352.599-.2763.8335-.8764.8357q-3.493.0082-6.9849.01c-.8225.0011-1.6439-.0033-2.4652-.0088-.6541-.0044-.904-.2378-.9062-.8786-.0066-1.9312-.0022-3.8624-.0022-5.7936h-.05c0-1.9445.0077-3.8889-.0067-5.8344-.0022-.31.0848-.3865.3909-.3854q5.28.0165,10.56.0022c.2621-.0011.3843.0287.3832.3436C16.6553,11.1037,16.6509,14.8968,16.642,18.6909Z"/><path class="a" d="M5.7172,21.4334c1.1328-.0051,2.2655-.0136,3.3983-.0148q3.2776-.0036,6.5554.0033c.1373,0,.3018-.0787.4142.0781H5.7285A.2008.2008,0,0,1,5.7172,21.4334Z"/><path class="a" d="M8.6023,9.0525c-.0187,1.45-.0077,2.9012-.0077,4.3513,0,1.4919-.01,2.9827.0077,4.4746.0033.3083-.0771.4184-.3865.3864a3.3745,3.3745,0,0,0-.7376.0011c-.3865.0474-.5076-.07-.5043-.4811.02-2.6821.0088-5.3642.0121-8.0464,0-.3666-.12-.8522.0649-1.07.217-.2543.7212-.0352,1.0945-.09C8.5439,8.52,8.6067,8.6991,8.6023,9.0525Z"/><path class="a" d="M11.8206,9.8651c.0066,2.6545-.0022,5.308.011,7.9626.0011.3226-.0539.4779-.414.4371-.3919-.044-.9094.1619-1.1505-.0737-.2577-.2544-.0782-.7763-.0815-1.1792-.0121-1.2035-.0044-2.408-.0044-3.6114,0-1.4919.0055-2.9827-.0055-4.4746-.0011-.2566.0517-.3689.3358-.3491.4195.0309.9733-.1343,1.2276.076C12.0067,8.873,11.82,9.4467,11.8206,9.8651Z"/><path class="a" d="M15.0213,9.79c.0077,2.6843-.0022,5.3675.0121,8.0518.0011.3425-.0869.4647-.4305.4217-.3765-.0462-.8819.1619-1.1-.0847-.1872-.2125-.0639-.7047-.065-1.0725-.0033-1.2463-.0011-2.4927-.0011-3.7391,0-1.4643.0066-2.93-.0055-4.3953-.0033-.2807.03-.43.3667-.3964.3919.0408.9105-.12,1.1484.0782C15.1986,8.8631,15.02,9.3982,15.0213,9.79Z"/><path class="a" d="M11.8206,9.8651c.0066,2.6545-.0022,5.308.011,7.9626.0011.3226-.0539.4779-.414.4371-.3919-.044-.9094.1619-1.1505-.0737-.2577-.2544-.0782-.7763-.0815-1.1792-.0121-1.2035-.0044-2.408-.0044-3.6114,0-1.4919.0055-2.9827-.0055-4.4746-.0011-.2566.0517-.3689.3358-.3491.4195.0309.9733-.1343,1.2276.076C12.0067,8.873,11.82,9.4467,11.8206,9.8651Z"/><path class="a" d="M8.6023,17.8784c.0033.3083-.0771.4184-.3865.3864a3.3745,3.3745,0,0,0-.7376.0011c-.3865.0474-.5076-.07-.5043-.4811.02-2.6821.0088-5.3642.0121-8.0464,0-.3666-.12-.8522.0649-1.07.217-.2543.7212-.0352,1.0945-.09.3985-.0583.4613.1212.4569.4746-.0187,1.45-.0077,2.9012-.0077,4.3513C8.5946,14.8957,8.5847,16.3865,8.6023,17.8784Z"/><path class="a" d="M15.0213,9.79c.0077,2.6843-.0022,5.3675.0121,8.0518.0011.3425-.0869.4647-.4305.4217-.3765-.0462-.8819.1619-1.1-.0847-.1872-.2125-.0639-.7047-.065-1.0725-.0033-1.2463-.0011-2.4927-.0011-3.7391,0-1.4643.0066-2.93-.0055-4.3953-.0033-.2807.03-.43.3667-.3964.3919.0408.9105-.12,1.1484.0782C15.1986,8.8631,15.02,9.3982,15.0213,9.79Z"/></svg>