<svg xmlns="http://www.w3.org/2000/svg" width="19.5455" height="21.5" viewBox="0 0 19.5455 21.5"><defs><style>.a{opacity:0.85;}.b,.c{fill:#e1f6ff;}.c{opacity:0.5;}</style></defs><g class="a"><path class="b" d="M18.8991,3.9091h-4.24V2.9318A2.94,2.94,0,0,0,11.7273,0H7.8182A2.94,2.94,0,0,0,4.8864,2.9318v.9773H.6463C.1088,3.9091,0,4.68,0,5.2173a.98.98,0,0,0,.9773.9773h.9772V18.5682A2.94,2.94,0,0,0,4.8864,21.5h9.7727a2.94,2.94,0,0,0,2.9318-2.9318V6.1946h.9773a.98.98,0,0,0,.9773-.9773C19.5455,4.68,19.4366,3.9091,18.8991,3.9091ZM15.8621,18.57a.9937.9937,0,0,1-1.0149.9648H4.6982A.9937.9937,0,0,1,3.6834,18.57V6.0279H15.8621Z"/></g><path class="c" d="M6.8358,16.125c-.474,0-.8581-.1412-.8581-.7562V9.5558c0-.6155.3841-.7558.8581-.7558s.8581.14.8581.7558v5.813C7.6939,15.9838,7.31,16.125,6.8358,16.125Zm3.9633-.7562V9.5558c0-.6155-.3848-.7558-.8584-.7558s-.8581.14-.8581.7558v5.813c0,.615.3844.7562.8581.7562S10.7991,15.9838,10.7991,15.3688Zm3.105,0V9.5558c0-.6155-.3848-.7558-.8584-.7558s-.8581.14-.8581.7558v5.813c0,.615.3844.7562.8581.7562S13.9041,15.9838,13.9041,15.3688Z"/></svg>