<svg xmlns="http://www.w3.org/2000/svg" width="22.0779" height="21" viewBox="0 0 22.0779 21"><defs><style>.a,.b{fill:#e1f6ff;}.a{opacity:0.85;}.b{opacity:0.5;}</style></defs><path class="a" d="M4.9052,19.2424a.3382.3382,0,0,0-.1237-.1629q-1.4283-1.4313-2.8581-2.8613a3.5506,3.5506,0,0,1,.01-5.087Q7.1982,5.8669,12.462.6016A1.8865,1.8865,0,0,1,15.2157.5922q2.82,2.8151,5.6349,5.6346a1.8838,1.8838,0,0,1-.0093,2.7417Q15.8071,14.0044,10.77,19.0377a1.4636,1.4636,0,0,1-.1917.139l.0383.0658m-2.8383-.4249a1.9781,1.9781,0,0,0,1.4012-.58q2.1351-2.13,4.2676-4.2629c.0746-.0743.0764-.1133.0009-.1887q-2.9-2.8935-5.794-5.7932c-.07-.07-.1094-.0873-.1892-.0072-1.4268,1.4322-2.8624,2.8555-4.2837,4.293a1.9734,1.9734,0,0,0,.0013,2.7683c1.06,1.0763,2.1325,2.1406,3.204,3.2056A1.9683,1.9683,0,0,0,7.7787,18.8176Z"/><path class="b" d="M21.28,20.9967C21.2305,21,7.7153,21,1.0086,21a1.0861,1.0861,0,0,1-.99-.7795c-.1283-.48.4309-.9769.96-.9769,1.24-.0033,2.48,0,3.72,0h16.413a.9259.9259,0,0,1,.944.6479A.86.86,0,0,1,21.28,20.9967Z"/></svg>