<svg xmlns="http://www.w3.org/2000/svg" width="20" height="20" viewBox="0 0 20 20"><defs><style>.a{fill:#ca8ca3;}.b{fill:#b07085;}.c{fill:#b37690;}.d{fill:#a37179;}.e{fill:#d5a4b7;}</style></defs><path class="a" d="M2.2843,10.6309q.5837-.53,1.1674-1.059.55-.4977,1.1027-.9933Q5.4273,7.7914,6.3,7.0036q.7044-.6367,1.4075-1.275.8516-.7692,1.7044-1.5369.6226-.5622,1.2441-1.1259.77-.6948,1.5408-1.3882.4587-.4137.9157-.8293a1.5433,1.5433,0,0,1,.62-.345L13.9541.5a1.3123,1.3123,0,0,1,.6817.3185c.3982.2891.7963.5784,1.1867.8781.4757.3652.9463.7366,1.4062,1.1216.377.3157.749.637,1.1119.969.32.2927.64.5849.95.8885.0538.0527.13.0865.1509.1691a.9393.9393,0,0,1,.0741.4042c-.0035.0429-.01.0855-.013.1281a.75.75,0,0,1-.3259.4848c-.16.1449-.3065.3023-.4621.4508-.18.1718-.3574.3472-.5344.5225-.3845.3808-.7742.7563-1.1592,1.1367-.21.2073-.4231.4115-.6339.6182-.382.3746-.7664.7466-1.1468,1.1229q-.3312.3275-.667.65c-.3959.3823-.7832.7732-1.1844,1.15-.13.1221-.2539.2507-.3805.3762-.19.1883-.3824.3744-.5726.5625-.3672.3633-.7392.7217-1.1071,1.0844-.2211.218-.4449.4333-.6667.6506-.3734.3659-.75.7288-1.1212,1.0965-.0873.0863-.181.1669-.2634.2581a1.2986,1.2986,0,0,1-.8423.3918A.4688.4688,0,0,1,8.27,15.92a.9172.9172,0,0,1-.5015-.2541c-.1709-.1637-.3687-.2951-.5473-.45-.2736-.2377-.5509-.4711-.8286-.7039-.2731-.2289-.5428-.4618-.8153-.6913-.2278-.1919-.4537-.3863-.6808-.5791q-.4214-.3579-.8431-.7153-.3939-.3333-.7866-.668c-.2478-.211-.4924-.4258-.7457-.63a.0885.0885,0,0,1-.0176-.0213,1.702,1.702,0,0,0-.1944-.2038A.2769.2769,0,0,1,2.2843,10.6309Z"/><path class="b" d="M19.4292,4.8523a1.03,1.03,0,0,1,.2495.531l.0011.0739c-.0242.13-.0391.2622-.0758.39a.1812.1812,0,0,1-.03.073c-.136.111-.2534.2421-.3793.3635q-.3617.3489-.7226.6987-.5666.5483-1.1352,1.0942c-.2767.2665-.5521.5344-.83.8q-.57.545-1.1359,1.0936-.4083.3934-.8169.7866-.5663.5419-1.129,1.0874-.4146.4-.83.8-.5718.5495-1.1423,1.1-.4017.387-.8037.7737c-.3884.3722-.7741.7471-1.1624,1.1192-.2352.2254-.4623.4592-.706.6757-.0272.0241-.05.0564-.0938.0484a5.343,5.343,0,0,1-.4123-.39c-.0216-.0208-.0435-.0487-.0027-.0752a1.0607,1.0607,0,0,0,.6141-.1048,1.1463,1.1463,0,0,0,.392-.2822q.4291-.4371.8715-.8612c.2414-.2318.4781-.4683.718-.7015.2422-.2354.4829-.4723.7244-.7083.2283-.2231.4576-.4451.6853-.6689q.368-.3615.7372-.7215.3321-.3255.6657-.6494c.3736-.3647.7491-.7273,1.1194-1.0953.2025-.2012.4111-.3962.6139-.5972q.579-.5742,1.1642-1.1419c.232-.224.4616-.45.6923-.6755q.5471-.5342,1.0933-1.0692c.23-.2261.4624-.4494.6923-.6754.0962-.0946.1905-.1919.2909-.2819a.5192.5192,0,0,0,.1422-.3676.6072.6072,0,0,0-.0647-.4021A.0266.0266,0,0,1,19.4292,4.8523Z"/><path class="c" d="M8.2725,15.8963c-.025.0441.0161.0594.0374.0808.1245.1256.25.25.3757.3745.0094.0569-.037.0823-.0693.11a2.6181,2.6181,0,0,0-.5512.6961c-.39.6759-.7975,1.3415-1.1989,2.0107a.8859.8859,0,0,1-.33.2828.9641.9641,0,0,1-.9308-.1785c-1.05-.84-2.071-1.7123-3.0516-2.6325C1.842,15.9726,1.15,15.2855.49,14.5677a.7655.7655,0,0,1-.1466-.6958A1.8871,1.8871,0,0,1,.59,13.2426c.3133-.5215.5886-1.0656.9309-1.57a1.1338,1.1338,0,0,1,.566-.473.5779.5779,0,0,1,.3307-.0486.1453.1453,0,0,1,.0958.0481,4.759,4.759,0,0,1,.4041.3308c.3.2477.5945.5018.89.7542.2238.1908.4455.3841.67.5743.2732.2318.5485.4609.822.6922.2128.18.4239.362.6364.5423q.4307.3654.8622.73c.2125.18.42.3671.6374.5406.17.1353.3293.2832.5034.4121A.6918.6918,0,0,0,8.2725,15.8963Z"/><path class="d" d="M6.5358,19.4513c-.0006-.043.0417-.0447.0644-.0582a1.1833,1.1833,0,0,0,.3835-.46q.3864-.647.7721-1.294c.1584-.2658.3072-.5378.4779-.7953a1.6773,1.6773,0,0,1,.3172-.3556.7386.7386,0,0,0,.1347-.1367.84.84,0,0,0,.2173-.1788c.2628-.2538.52-.514.784-.7662q.2664-.2542.5313-.51c.2911-.2818.5857-.56.8746-.8438.1684-.1655.343-.3249.5113-.4907.2886-.2843.5818-.5639.8737-.8447.1591-.1531.32-.304.4793-.4573.307-.2963.6108-.5959.92-.89.1826-.1732.3629-.3486.5444-.5228.2857-.274.5694-.55.8551-.8241q.4119-.3951.8222-.7918c.2853-.2744.5726-.5466.8553-.8239.1752-.1718.3558-.3381.5307-.51.2885-.2843.5818-.5638.8736-.8448.1657-.16.333-.3175.4988-.4771.2033-.1959.4053-.3932.6091-.5886a.222.222,0,0,1,.1078-.0667c-.4218.6322-.8141,1.2832-1.248,1.9082A13.2374,13.2374,0,0,1,16.648,9.7247c-.6163.6017-1.2232,1.2131-1.8344,1.82q-2.0368,2.022-4.074,4.0439Q9.554,16.7654,8.3679,17.9415c-.3647.3618-.7253.7278-1.0951,1.0844a2.12,2.12,0,0,1-.5782.3851A.32.32,0,0,1,6.5358,19.4513Z"/><path class="e" d="M2.513,11.1991a.7356.7356,0,0,0-.6738.1621,1.1314,1.1314,0,0,0-.2761.2786.1871.1871,0,0,1-.0425.0328,4.87,4.87,0,0,1,.4516-.6928,1.948,1.948,0,0,1,.3121-.3489.3245.3245,0,0,0,.1.4178C2.4335,11.09,2.5,11.1242,2.513,11.1991Z"/></svg>