<svg xmlns="http://www.w3.org/2000/svg" width="22" height="22" viewBox="0 0 22 22"><defs><style>.a{fill:#12263f;}</style></defs><path class="a" d="M19.4628,11.8463H2.5372a.8463.8463,0,0,1,0-1.6926H19.4628a.8463.8463,0,0,1,0,1.6926Z"/><path class="a" d="M11,20.3091a.846.846,0,0,1-.8463-.8463V2.5372a.8463.8463,0,1,1,1.6926,0V19.4628A.846.846,0,0,1,11,20.3091Z"/><path class="a" d="M11,22a.975.975,0,0,1-.6915-.2865L7.3745,18.78a.9779.9779,0,0,1,1.383-1.383L11,19.639l2.2425-2.2425a.9779.9779,0,0,1,1.383,1.383l-2.934,2.934A.975.975,0,0,1,11,22Z"/><path class="a" d="M18.088,14.912a.978.978,0,0,1-.6915-1.67L19.639,11,17.3965,8.7575a.9779.9779,0,0,1,1.383-1.383l2.934,2.934a.9778.9778,0,0,1,0,1.383l-2.934,2.934A.975.975,0,0,1,18.088,14.912Z"/><path class="a" d="M3.912,14.912a.975.975,0,0,1-.6915-.2865l-2.934-2.934a.9778.9778,0,0,1,0-1.383l2.934-2.934a.9779.9779,0,0,1,1.383,1.383L2.361,11l2.2425,2.2425a.978.978,0,0,1-.6915,1.67Z"/><path class="a" d="M13.934,4.89a.975.975,0,0,1-.6915-.2865L11,2.361,8.7575,4.6035a.9779.9779,0,0,1-1.383-1.383l2.934-2.934a.9778.9778,0,0,1,1.383,0l2.934,2.934A.978.978,0,0,1,13.934,4.89Z"/></svg>