<svg xmlns="http://www.w3.org/2000/svg" width="22" height="22" viewBox="0 0 22 22"><defs><style>.a,.c{fill:#e1f6ff;}.a{opacity:0.5;}.b{opacity:0.85;}</style></defs><path class="a" d="M11,22A11,11,0,1,1,22,11,11.0125,11.0125,0,0,1,11,22ZM11,2a9,9,0,1,0,9,9A9.01,9.01,0,0,0,11,2Z"/><g class="b"><path class="c" d="M10.2364,7.9993v6a1.2368,1.2368,0,0,1-2.4735,0v-6a1.2368,1.2368,0,0,1,2.4735,0Z"/><path class="c" d="M14.2372,7.9993v6a1.2367,1.2367,0,0,1-2.4734,0v-6a1.2367,1.2367,0,0,1,2.4734,0Z"/></g></svg>