<svg xmlns="http://www.w3.org/2000/svg" xmlns:xlink="http://www.w3.org/1999/xlink" width="22" height="22" viewBox="0 0 22 22"><defs><style>.a{opacity:0.8;}.b{opacity:0.7;}.c{opacity:0.3;}.d{opacity:0.9;}.e,.f{opacity:0.2;}.f{fill:url(#a);}.g{fill:url(#b);}.h{fill:#ffb743;}.i{opacity:0.75;}</style><radialGradient id="a" cx="11" cy="11" r="11" gradientUnits="userSpaceOnUse"><stop offset="0.2104" stop-color="#ffa300"/><stop offset="0.9534" stop-color="#274454" stop-opacity="0"/></radialGradient><linearGradient id="b" y1="11" x2="22" y2="11" gradientUnits="userSpaceOnUse"><stop offset="0.2162" stop-color="#ffb743"/><stop offset="0.5421" stop-color="#ffb743" stop-opacity="0.782"/><stop offset="0.7972" stop-color="#ffb743" stop-opacity="0.6"/></linearGradient></defs><circle class="f" cx="11" cy="11" r="11"/><g class="c"><path class="g" d="M11,22A11,11,0,1,1,22,11,11.0125,11.0125,0,0,1,11,22ZM11,1.7941A9.2059,9.2059,0,1,0,20.2059,11,9.2166,9.2166,0,0,0,11,1.7941Z"/></g><path class="h" d="M9,15a1,1,0,0,1-1-1V8a1,1,0,0,1,2,0v6A1,1,0,0,1,9,15Z"/><path class="h" d="M9,15.2357A1.2372,1.2372,0,0,1,7.7642,14V8a1.2358,1.2358,0,1,1,2.4715,0v6A1.2371,1.2371,0,0,1,9,15.2357Zm0-8A.7653.7653,0,0,0,8.2356,8v6a.7644.7644,0,0,0,1.5287,0V8A.7652.7652,0,0,0,9,7.2356Z"/><path class="h" d="M13,15a1,1,0,0,1-1-1V8a1,1,0,0,1,2,0v6A1,1,0,0,1,13,15Z"/><path class="h" d="M13,15.2357A1.2371,1.2371,0,0,1,11.7643,14V8a1.2358,1.2358,0,1,1,2.4715,0v6A1.2372,1.2372,0,0,1,13,15.2357Zm0-8A.7652.7652,0,0,0,12.2357,8v6a.7643.7643,0,0,0,1.5286,0V8A.7652.7652,0,0,0,13,7.2356Z"/></svg>