<svg xmlns="http://www.w3.org/2000/svg" width="22" height="21.9743" viewBox="0 0 22 21.9743"><defs><style>.a,.c{fill:#e1f6ff;}.a{opacity:0.5;}.b{opacity:0.85;}</style></defs><path class="a" d="M21.3942,11.2736V18.535a3.4421,3.4421,0,0,1-3.4356,3.4393H3.4357A3.44,3.44,0,0,1,0,18.535V4.0157A3.44,3.44,0,0,1,3.4357.5765h7.2614a1.362,1.362,0,1,1,0,2.7239H3.4357a.7138.7138,0,0,0-.7117.7153V18.535a.7108.7108,0,0,0,.7117.7117H17.9586a.7131.7131,0,0,0,.7117-.7117V11.2736a1.362,1.362,0,1,1,2.7239,0Z"/><g class="b"><path class="c" d="M7.7082,14.028,8.7889,9.7033,17.6978.7949A2.5614,2.5614,0,0,1,21.0892.5194a2.4647,2.4647,0,0,1,.1915,3.6534L12.27,13.1837,7.9456,14.2653A.1957.1957,0,0,1,7.7082,14.028ZM18.1322,1.0243h0Z"/></g></svg>