<svg xmlns="http://www.w3.org/2000/svg" xmlns:xlink="http://www.w3.org/1999/xlink" width="22" height="22" viewBox="0 0 22 22"><defs><style>.a{opacity:0.8;}.b{opacity:0.7;}.c{opacity:0.3;}.d{opacity:0.9;}.e,.f{opacity:0.2;}.f{fill:url(#a);}.g{fill:url(#b);}.h{fill:#ffa300;}.i{opacity:0.75;}</style><radialGradient id="a" cx="11" cy="11" r="11" gradientUnits="userSpaceOnUse"><stop offset="0.2104" stop-color="#ffa300"/><stop offset="0.9534" stop-color="#274454" stop-opacity="0"/></radialGradient><linearGradient id="b" x1="1.2785" y1="11.5588" x2="18.0885" y2="11.5588" gradientUnits="userSpaceOnUse"><stop offset="0.2162" stop-color="#ffb743"/><stop offset="0.5421" stop-color="#ffb743" stop-opacity="0.782"/><stop offset="0.7972" stop-color="#ffb743" stop-opacity="0.6"/></linearGradient></defs><g class="a"><circle class="f" cx="11" cy="11" r="11"/><g class="c"><path class="g" d="M18.0885,11.5539v5.89a2.5223,2.5223,0,0,1-2.52,2.52H3.7985a2.5223,2.5223,0,0,1-2.52-2.52V5.6738a2.5224,2.5224,0,0,1,2.52-2.52h5.89a.84.84,0,1,1,0,1.68h-5.89a.8387.8387,0,0,0-.84.84v11.77a.8452.8452,0,0,0,.84.84h11.77a.8452.8452,0,0,0,.84-.84v-5.89a.84.84,0,1,1,1.68,0Z"/></g><path class="h" d="M7.788,13.2655l.8649-3.461,7.13-7.1293a2.05,2.05,0,0,1,2.714-.22A1.9724,1.9724,0,0,1,18.65,5.3785L11.4386,12.59l-3.4606.8656A.1567.1567,0,0,1,7.788,13.2655ZM16.13,2.8588h0Z"/></g></svg>