<svg xmlns="http://www.w3.org/2000/svg" width="23" height="17.8868" viewBox="0 0 23 17.8868"><defs><style>.a{opacity:0.5;}.b{fill:#e1f6ff;}.c{opacity:0.85;}</style></defs><g class="a"><path class="b" d="M22.7751,11.8206l-2.2769-1.012A8.6659,8.6659,0,0,0,7.2878,1.462L8.9621,3.8262a5.7713,5.7713,0,0,1,8.8315,5.7911l-2.3045-1.035c-.29-.1287-.4646.0184-.3772.322l1.5916,5.8739a.4489.4489,0,0,0,.6669.2944l5.4231-2.7645C23.0741,12.1655,23.07,11.9447,22.7751,11.8206Z"/></g><g class="c"><path class="b" d="M8.5527,14.493A5.7853,5.7853,0,0,1,5.2,8.27L7.504,9.2907c.29.1288.4646-.0184.3772-.322L6.29,3.1041A.4489.4489,0,0,0,5.6227,2.81L.2088,5.57c-.2852.1426-.276.368.0138.4968L2.5,7.0782a8.6659,8.6659,0,0,0,13.21,9.3467l-1.6743-2.3643A5.7824,5.7824,0,0,1,8.5527,14.493Z"/></g></svg>