<svg xmlns="http://www.w3.org/2000/svg" xmlns:xlink="http://www.w3.org/1999/xlink" width="22" height="22" viewBox="0 0 22 22"><defs><style>.a{opacity:0.8;}.b{opacity:0.7;}.c{opacity:0.3;}.d{opacity:0.9;}.e{opacity:0.2;}.f{opacity:0.15;fill:url(#a);}.g{fill:url(#b);}.h{fill:#00ffec;}.i{opacity:0.75;}</style><radialGradient id="a" cx="11" cy="11" r="11" gradientUnits="userSpaceOnUse"><stop offset="0" stop-color="aqua" stop-opacity="0"/><stop offset="0.5419" stop-color="#244e5f" stop-opacity="0.0866"/><stop offset="0.5615" stop-color="#235565" stop-opacity="0.1203"/><stop offset="0.5937" stop-color="#1f6675" stop-opacity="0.2118"/><stop offset="0.6346" stop-color="#19838f" stop-opacity="0.3609"/><stop offset="0.6826" stop-color="#11abb3" stop-opacity="0.5677"/><stop offset="0.7358" stop-color="#07dee1" stop-opacity="0.8284"/><stop offset="0.7682" stop-color="aqua"/><stop offset="0.7691" stop-color="#00fefe" stop-opacity="0.9943"/><stop offset="0.8204" stop-color="#0cc6cb" stop-opacity="0.697"/><stop offset="0.8684" stop-color="#1598a1" stop-opacity="0.449"/><stop offset="0.9116" stop-color="#1d7480" stop-opacity="0.2554"/><stop offset="0.9494" stop-color="#225a68" stop-opacity="0.1162"/><stop offset="0.9801" stop-color="#264a59" stop-opacity="0.031"/><stop offset="1" stop-color="#274454" stop-opacity="0"/></radialGradient><linearGradient id="b" x1="6.7655" y1="9.3698" x2="21.3516" y2="9.3698" gradientUnits="userSpaceOnUse"><stop offset="0.2248" stop-color="#00c9ec"/><stop offset="0.8566" stop-color="#00ffec"/></linearGradient></defs><g class="a"><circle class="f" cx="11" cy="11" r="11"/><g class="c"><path class="g" d="M21.1429,13.3192,19.0292,12.38A8.0449,8.0449,0,0,0,6.7655,3.7029L8.32,5.8978a5.3577,5.3577,0,0,1,8.1986,5.376l-2.1393-.9608c-.2691-.12-.4313.0171-.35.2989l1.4775,5.4529a.4167.4167,0,0,0,.6191.2733L21.16,13.7718C21.42,13.6394,21.4162,13.4345,21.1429,13.3192Z"/></g><path class="h" d="M8.1478,15.8a5.3705,5.3705,0,0,1-3.1129-5.7774l2.1393.9479c.269.12.4313-.017.35-.2989L6.0469,5.2274a.4168.4168,0,0,0-.6192-.2733L.4018,7.5161c-.2647.1324-.2562.3416.0128.4612l2.1137.9394A8.0449,8.0449,0,0,0,14.792,17.5935l-1.5543-2.1948A5.3683,5.3683,0,0,1,8.1478,15.8Z"/></g></svg>