<svg width="132" height="85" viewBox="0 0 132 85" fill="none" xmlns="http://www.w3.org/2000/svg">
<path d="M103.761 83.8125H82.6902" stroke="#4793F8" stroke-width="1.10254" stroke-linecap="round" stroke-linejoin="round"/>
<path d="M114.786 83.8125H108.293" stroke="#4793F8" stroke-width="1.10254" stroke-linecap="round" stroke-linejoin="round"/>
<path d="M67.561 83.9355H10.4128" stroke="#4793F8" stroke-width="1.10254" stroke-linecap="round" stroke-linejoin="round"/>
<path d="M27.8237 45.9746H10.6934" stroke="#E6F1FE" stroke-width="1.22504" stroke-linecap="round" stroke-linejoin="round"/>
<path d="M34.4684 51.6855H22.9443L34.4684 56.2537V51.6855Z" fill="#1F8CED" stroke="#1F8CED" stroke-width="1.22504"/>
<path d="M63.0189 75.466V49.6084L41.1565 57.2182C41.0864 57.2427 41.0105 57.2453 40.9389 57.2257L21.906 52.0265V52.0268V77.3637L60.5338 77.9158C61.9005 77.9354 63.0189 76.8329 63.0189 75.466Z" fill="#A2C9FF"/>
<path d="M63.0188 49.5795H63.6314V48.6465L62.7753 49.0174L63.0188 49.5795ZM21.9655 51.0185C21.7151 51.2459 21.6964 51.6333 21.9236 51.8838C22.151 52.1342 22.5383 52.1529 22.7889 51.9257L21.9655 51.0185ZM52.4635 56.745C52.193 56.9482 52.1385 57.3322 52.3418 57.6027C52.545 57.8731 52.9289 57.9277 53.1994 57.7244L52.4635 56.745ZM51.0218 59.269C51.2837 59.0549 51.3225 58.6691 51.1084 58.4071C50.8944 58.1452 50.5085 58.1064 50.2466 58.3205L51.0218 59.269ZM48.249 59.9531C47.9871 60.1673 47.9483 60.5532 48.1624 60.8151C48.3764 61.077 48.7623 61.1158 49.0242 60.9017L48.249 59.9531ZM47.0942 62.6348C47.3563 62.4211 47.3958 62.0352 47.182 61.7729C46.9684 61.5108 46.5826 61.4713 46.3203 61.685L47.0942 62.6348ZM46.285 62.5039L45.8982 62.029L46.285 62.5039ZM36.0463 39.0657L35.6345 38.6121L36.0463 39.0657ZM36.6354 39.2036L36.0651 39.4272L36.6354 39.2036ZM41.6163 58.7421L41.8327 58.1691L41.6163 58.7421ZM41.8923 58.7356L42.1359 59.2975L41.8923 58.7356ZM62.4063 49.5795V75.5015H63.6314V49.5795H62.4063ZM60.5688 77.339H24.1111V78.5641H60.5688V77.339ZM22.5185 75.7465V53.0666H21.2935V75.7465H22.5185ZM22.7889 51.9257L36.4579 39.5192L35.6345 38.6121L21.9655 51.0185L22.7889 51.9257ZM53.1994 57.7244L63.3868 50.0691L62.6508 49.0898L52.4635 56.745L53.1994 57.7244ZM36.0651 39.4272L45.1405 62.5767L46.281 62.1295L37.2056 38.9801L36.0651 39.4272ZM49.0242 60.9017L51.0218 59.269L50.2466 58.3205L48.249 59.9531L49.0242 60.9017ZM46.6719 62.9787L47.0942 62.6348L46.3203 61.685L45.8982 62.029L46.6719 62.9787ZM23.3476 52.4935L41.3998 59.315L41.8327 58.1691L23.7807 51.3476L23.3476 52.4935ZM42.1359 59.2975L63.2624 50.1415L62.7753 49.0174L41.6487 58.1735L42.1359 59.2975ZM45.1405 62.5767C45.3829 63.195 46.1571 63.3982 46.6719 62.9787L45.8982 62.029C46.0268 61.9241 46.2203 61.9749 46.281 62.1295L45.1405 62.5767ZM24.1111 77.339C23.2316 77.339 22.5185 76.6259 22.5185 75.7465H21.2935C21.2935 77.3025 22.555 78.5641 24.1111 78.5641V77.339ZM62.4063 75.5015C62.4063 76.5163 61.5836 77.339 60.5688 77.339V78.5641C62.2602 78.5641 63.6314 77.1929 63.6314 75.5015H62.4063ZM36.4579 39.5192C36.3308 39.6345 36.1277 39.587 36.0651 39.4272L37.2056 38.9801C36.9552 38.3412 36.1427 38.151 35.6345 38.6121L36.4579 39.5192ZM41.3998 59.315C41.6381 59.4052 41.9021 59.3988 42.1359 59.2975L41.6487 58.1735C41.7072 58.1482 41.7732 58.1466 41.8327 58.1691L41.3998 59.315ZM22.5185 53.0666C22.5185 52.6382 22.9469 52.3422 23.3476 52.4935L23.7807 51.3476C22.5786 50.8933 21.2935 51.7815 21.2935 53.0666H22.5185Z" fill="#1F8CED"/>
<path d="M34.4683 28.6367H100.913V78.6781H34.8835L34.4683 28.6367Z" fill="#EEF6FF"/>
<path d="M34.676 78.6786L55.9592 58.7451" stroke="#1F8CED" stroke-width="0.980033" stroke-linecap="round" stroke-linejoin="round"/>
<path d="M100.511 78.3914L78.592 56.9795" stroke="#1F8CED" stroke-width="0.980033" stroke-linecap="round" stroke-linejoin="round"/>
<path d="M34.8835 29.1071L99.875 28.6367L71.2202 53.7659C69.1161 55.6111 65.9766 55.6326 63.8474 53.8162L34.8835 29.1071Z" fill="#A4CEFF"/>
<path d="M0.571011 64.2465C0.886372 64.2465 1.14202 63.9909 1.14202 63.6755C1.14202 63.3601 0.886372 63.1045 0.571011 63.1045C0.25565 63.1045 0 63.3601 0 63.6755C0 63.9909 0.25565 64.2465 0.571011 64.2465Z" fill="#A8CEFF"/>
<path d="M111.451 29.4681C111.938 29.4681 112.333 29.073 112.333 28.5856C112.333 28.0982 111.938 27.7031 111.451 27.7031C110.963 27.7031 110.568 28.0982 110.568 28.5856C110.568 29.073 110.963 29.4681 111.451 29.4681Z" fill="#A8CEFF"/>
<path d="M130.191 80.1318H122.6M106 80.1318H119.893M21.439 80.1318H17.1823H2.12842" stroke="#4793F8" stroke-width="0.980033" stroke-linecap="round" stroke-linejoin="round"/>
<path d="M41.5284 29.3481C41.8666 29.3481 42.1409 29.0738 42.1409 28.7356C42.1409 28.3972 41.8666 28.123 41.5284 28.123V29.3481ZM83.9913 41.893C83.7382 42.1175 83.7149 42.5047 83.9393 42.7578C84.1639 43.0109 84.551 43.034 84.8041 42.8096L83.9913 41.893ZM81.2442 45.5821C81.4961 45.3562 81.5173 44.969 81.2914 44.7171C81.0656 44.4652 80.6783 44.4441 80.4264 44.6699L81.2442 45.5821ZM73.1515 52.2888L72.7433 51.8322L73.1515 52.2888ZM77.188 47.5739C76.9361 47.7997 76.9151 48.1869 77.1409 48.4388C77.3667 48.6906 77.754 48.7117 78.0058 48.4859L77.188 47.5739ZM74.8771 51.5679C75.1293 51.3424 75.151 50.9551 74.9256 50.703C74.7002 50.4508 74.3129 50.4291 74.0607 50.6545L74.8771 51.5679ZM33.6484 34.0361C33.6484 34.3744 33.9226 34.6486 34.261 34.6486C34.5992 34.6486 34.8735 34.3744 34.8735 34.0361H33.6484ZM34.8735 36.995C34.8735 36.6567 34.5992 36.3825 34.261 36.3825C33.9226 36.3825 33.6484 36.6567 33.6484 36.995H34.8735ZM87.417 79.8105C87.7552 79.8105 88.0295 79.5362 88.0295 79.1979C88.0295 78.8596 87.7552 78.5854 87.417 78.5854V79.8105ZM93.0752 78.5854C92.7368 78.5854 92.4627 78.8596 92.4627 79.1979C92.4627 79.5362 92.7368 79.8105 93.0752 79.8105V78.5854ZM64.63 54.2659L64.2358 54.7347L64.63 54.2659ZM71.0489 54.1684L70.6406 53.7117L71.0489 54.1684ZM98.8756 29.5105L98.4693 29.0522L98.8756 29.5105ZM35.486 29.3481H41.5284V28.123H35.486V29.3481ZM33.8667 29.2041L64.2358 54.7347L65.0241 53.797L34.6551 28.2665L33.8667 29.2041ZM84.8041 42.8096L99.2821 29.9688L98.4693 29.0522L83.9913 41.893L84.8041 42.8096ZM71.4571 54.625L73.5597 52.7455L72.7433 51.8322L70.6406 53.7117L71.4571 54.625ZM78.0058 48.4859L81.2442 45.5821L80.4264 44.6699L77.188 47.5739L78.0058 48.4859ZM73.5597 52.7455L74.8771 51.5679L74.0607 50.6545L72.7433 51.8322L73.5597 52.7455ZM100.301 30.427V76.7582H101.526V30.427H100.301ZM34.8735 34.0361V29.9606H33.6484V34.0361H34.8735ZM34.8735 76.7479V36.995H33.6484V76.7479H34.8735ZM87.417 78.5854H36.711V79.8105H87.417V78.5854ZM98.4738 78.5854H93.0752V79.8105H98.4738V78.5854ZM33.6484 76.7479C33.6484 78.4393 35.0196 79.8105 36.711 79.8105V78.5854C35.6962 78.5854 34.8735 77.7627 34.8735 76.7479H33.6484ZM100.301 76.7582C100.301 77.7673 99.483 78.5854 98.4738 78.5854V79.8105C100.16 79.8105 101.526 78.4439 101.526 76.7582H100.301ZM64.2358 54.7347C66.3351 56.4995 69.4124 56.4529 71.4571 54.625L70.6406 53.7117C69.0503 55.1332 66.6568 55.1696 65.0241 53.797L64.2358 54.7347ZM99.2821 29.9688C99.6773 29.6183 100.301 29.8989 100.301 30.427H101.526C101.526 28.8424 99.6547 28.0008 98.4693 29.0522L99.2821 29.9688ZM35.486 28.123C34.4712 28.123 33.6484 28.9458 33.6484 29.9606H34.8735C34.8735 29.6223 35.1476 29.3481 35.486 29.3481V28.123Z" fill="#1F8CED"/>
<path d="M77.0346 75.3564H43.5007" stroke="#4793F8" stroke-width="0.490016"/>
<path d="M84.2503 75.3564H81.499" stroke="#4793F8" stroke-width="0.490016"/>
<path d="M99.9788 28.8965H48.9512" stroke="#1F8CED" stroke-width="1.22504" stroke-linecap="round" stroke-linejoin="round"/>
<path d="M39.2441 42.7568V63.8324" stroke="#4793F8" stroke-width="0.490016"/>
<path d="M96.449 67.4583V57.4129M96.449 37.9805V52.7194V37.9805Z" stroke="#4793F8" stroke-width="0.490016"/>
<path d="M31.0423 74.9407H26.7546C25.7396 74.9407 24.917 74.118 24.917 73.1031V66.7389V64.6884M24.917 58.5371V62.1364V58.5371Z" stroke="white" stroke-opacity="0.6" stroke-width="0.61252" stroke-linecap="round" stroke-linejoin="round"/>
<path d="M113.044 50.4375C113.503 50.4375 113.875 50.0656 113.875 49.6069C113.875 49.1482 113.503 48.7764 113.044 48.7764C112.586 48.7764 112.214 49.1482 112.214 49.6069C112.214 50.0656 112.586 50.4375 113.044 50.4375Z" fill="#1F8CED"/>
<path d="M34.9138 25.3779H10.658" stroke="#E6F1FE" stroke-width="1.22504" stroke-linecap="round" stroke-linejoin="round"/>
<path d="M14.9499 54.1768H3.63354" stroke="#E6F1FE" stroke-width="1.22504" stroke-linecap="round" stroke-linejoin="round"/>
<path d="M14.9502 64.6621H10.2783" stroke="#E6F1FE" stroke-width="1.22504" stroke-linecap="round" stroke-linejoin="round"/>
<path d="M23.8787 35.2812H19.2068" stroke="#E6F1FE" stroke-width="1.22504" stroke-linecap="round" stroke-linejoin="round"/>
<path fill-rule="evenodd" clip-rule="evenodd" d="M6.54077 36.7344C7.49857 37.6926 9.73508 37.6926 10.6936 36.7344C9.73508 37.6926 9.73508 39.9287 10.6936 40.8871C9.73508 39.9287 7.49857 39.9287 6.54077 40.8871C7.49857 39.9287 7.49857 37.6926 6.54077 36.7344Z" fill="#A8CEFF"/>
<path fill-rule="evenodd" clip-rule="evenodd" d="M11.2126 71.8262C11.7873 72.4011 13.1292 72.4011 13.7043 71.8262C13.1292 72.4011 13.1292 73.7428 13.7043 74.3179C13.1292 73.7428 11.7873 73.7428 11.2126 74.3179C11.7873 73.7428 11.7873 72.4011 11.2126 71.8262Z" fill="#A8CEFF"/>
<path d="M15.3653 69.1271C15.652 69.1271 15.8844 68.8947 15.8844 68.608C15.8844 68.3213 15.652 68.0889 15.3653 68.0889C15.0786 68.0889 14.8462 68.3213 14.8462 68.608C14.8462 68.8947 15.0786 69.1271 15.3653 69.1271Z" fill="#A8CEFF"/>
<path d="M128.874 66.9072H110.621" stroke="#E6F1FE" stroke-width="1.22504" stroke-linecap="round" stroke-linejoin="round"/>
<path d="M131.079 56.6172H110.621" stroke="#E6F1FE" stroke-width="1.22504" stroke-linecap="round" stroke-linejoin="round"/>
<path d="M129.333 39.957H115" stroke="#E6F1FE" stroke-width="1.22504" stroke-linecap="round" stroke-linejoin="round"/>
<path d="M125.763 44.9785H108" stroke="#E6F1FE" stroke-width="1.22504" stroke-linecap="round" stroke-linejoin="round"/>
<path d="M124.709 20.8457H101.923" stroke="#E6F1FE" stroke-width="1.22504" stroke-linecap="round" stroke-linejoin="round"/>
<path d="M124.709 35.3018H108.293" stroke="#E6F1FE" stroke-width="1.22504" stroke-linecap="round" stroke-linejoin="round"/>
<path fill-rule="evenodd" clip-rule="evenodd" d="M126.792 25.1328C127.773 26.1149 130.066 26.1149 131.049 25.1328C130.066 26.1149 130.066 28.407 131.049 29.3895C130.066 28.407 127.773 28.407 126.792 29.3895C127.773 28.407 127.773 26.1149 126.792 25.1328Z" fill="#E6F1FE"/>
<path d="M125.228 52.2648C125.515 52.2648 125.747 52.0324 125.747 51.7457C125.747 51.459 125.515 51.2266 125.228 51.2266C124.942 51.2266 124.709 51.459 124.709 51.7457C124.709 52.0324 124.942 52.2648 125.228 52.2648Z" fill="#A8CEFF"/>
<path d="M79.3373 23.9082H66.1521" stroke="#E6F1FE" stroke-width="1.22504" stroke-linecap="round" stroke-linejoin="round"/>
<path d="M60.2721 7.7373H29.8911" stroke="#E6F1FE" stroke-width="1.22504" stroke-linecap="round" stroke-linejoin="round"/>
<path d="M70.5624 16.4355H43.489" stroke="#E6F1FE" stroke-width="1.22504" stroke-linecap="round" stroke-linejoin="round"/>
<path d="M34.4237 16.4355H13.7205" stroke="#E6F1FE" stroke-width="1.22504" stroke-linecap="round" stroke-linejoin="round"/>
<path d="M87.5904 1L55.9844 1" stroke="#E6F1FE" stroke-width="1.22504" stroke-linecap="round" stroke-linejoin="round"/>
<path d="M112.336 12.7598H86.6104" stroke="#E6F1FE" stroke-width="1.22504" stroke-linecap="round" stroke-linejoin="round"/>
<path d="M75.83 40.9366L66.6435 48.4785C66.2207 48.8257 65.607 48.8103 65.2023 48.4423L62.033 45.5611M50.4104 34.9951L58.1588 42.0391L50.4104 34.9951Z" stroke="#EEF6FF" stroke-width="1.10254" stroke-linecap="round" stroke-linejoin="round"/>
</svg>
