<?xml version="1.0" encoding="utf-8"?>
<!-- Generator: Adobe Illustrator 24.3.0, SVG Export Plug-In . SVG Version: 6.00 Build 0)  -->
<svg version="1.1" id="Layer_1" xmlns="http://www.w3.org/2000/svg" xmlns:xlink="http://www.w3.org/1999/xlink" x="0px" y="0px"
	 viewBox="0 0 7 9" style="enable-background:new 0 0 7 9;" xml:space="preserve">
<style type="text/css">
	.st0{fill:#383838;}
</style>
<path class="st0" d="M6.6,9c0.1,0,0.2,0,0.3-0.1C7,8.8,7,8.7,7,8.5l0-8.1c0-0.1,0-0.2-0.1-0.3C6.8,0,6.7,0,6.6,0H0.4
	C0.3,0,0.2,0,0.1,0.1C0,0.2,0,0.3,0,0.5l0,8.1c0,0.1,0,0.2,0.1,0.3C0.2,9,0.3,9,0.4,9H6.6z M0.6,0.6h5.8l0,7.8H0.6L0.6,0.6z"/>
<circle class="st0" cx="3.5" cy="7.1" r="0.6"/>
</svg>
