<svg width="60" height="60" viewBox="0 0 60 60" fill="none" xmlns="http://www.w3.org/2000/svg">
<path d="M30 59.7999C46.4581 59.7999 59.8 46.458 59.8 30C59.8 13.5419 46.4581 0.199951 30 0.199951C13.5419 0.199951 0.200012 13.5419 0.200012 30C0.200012 46.458 13.5419 59.7999 30 59.7999Z" fill="#1B17CF"/>
<path d="M43 28.41C43 21.49 36.9 15.89 29.38 15.89C21.86 15.89 15.76 21.49 15.76 28.41C15.779 30.1428 16.1487 31.8538 16.847 33.4398C17.5454 35.0258 18.5577 36.4539 19.823 37.6379C21.0884 38.8219 22.5804 39.7373 24.2092 40.3289C25.838 40.9205 27.5698 41.176 29.3 41.08C30.05 41.08 35.08 40.94 37.3 40.95C38.71 40.95 42.69 45.43 43 46.1C43 44.85 43 31.32 43 28.41ZM24.66 31.36C24.1896 31.366 23.7281 31.2318 23.3342 30.9746C22.9403 30.7174 22.6319 30.3487 22.4482 29.9156C22.2645 29.4825 22.2138 29.0046 22.3027 28.5426C22.3915 28.0806 22.6158 27.6556 22.9471 27.3215C23.2783 26.9874 23.7015 26.7595 24.1627 26.6667C24.6239 26.574 25.1022 26.6206 25.5369 26.8006C25.9715 26.9806 26.3427 27.2858 26.6033 27.6775C26.8639 28.0692 27.002 28.5296 27 29C26.9974 29.6217 26.7507 30.2174 26.313 30.6589C25.8753 31.1004 25.2816 31.3522 24.66 31.36V31.36ZM34.91 31.36C34.4408 31.36 33.9822 31.2208 33.5923 30.9599C33.2023 30.699 32.8986 30.3283 32.7195 29.8946C32.5404 29.461 32.494 28.984 32.5863 28.524C32.6786 28.064 32.9053 27.6417 33.2377 27.3106C33.5702 26.9796 33.9934 26.7547 34.4538 26.6643C34.9142 26.574 35.391 26.6224 35.8239 26.8033C36.2568 26.9842 36.6262 27.2895 36.8855 27.6806C37.1447 28.0717 37.282 28.5309 37.28 29C37.2748 29.626 37.0231 30.2248 36.5794 30.6665C36.1358 31.1082 35.536 31.3574 34.91 31.36V31.36Z" fill="white"/>
</svg>
