<svg xmlns="http://www.w3.org/2000/svg" width="18" height="18" viewBox="0 0 18 18"><defs><style>.a{fill:#fff;}</style></defs><path class="a" d="M15.99,9.9827a1.2163,1.2163,0,0,1-.4248.5727,2.6068,2.6068,0,0,1-1.0694.46l-.0146.0029-3.0367.6285,2.1636,3.7691a.8475.8475,0,0,1,.0791.6431.8984.8984,0,0,1-.3794.5215.1357.1357,0,0,1-.0249.0146L11.0359,17.893a.3822.3822,0,0,1-.0484.0235.9049.9049,0,0,1-.6079.0542.8544.8544,0,0,1-.52-.3912L7.68,13.8221,5.607,16.1484a2.62,2.62,0,0,1-.9331.6958,1.2221,1.2221,0,0,1-.709.082.9437.9437,0,0,1-.6153-.4409,1.7036,1.7036,0,0,1-.23-.79L1.9638.6455A.2836.2836,0,0,1,1.9624.6118.6242.6242,0,0,1,2.0166.3423.6117.6117,0,0,1,2.2172.0932.343.343,0,0,1,2.34.0332.5969.5969,0,0,1,2.6025.0039a.6175.6175,0,0,1,.24.0761.3634.3634,0,0,1,.0717.044l12.434,8.5124a1.7306,1.7306,0,0,1,.5683.5933A.9348.9348,0,0,1,15.99,9.9827Z"/><path d="M10.6726,17.1943l.167-.0381A.373.373,0,0,0,10.6726,17.1943ZM15.9168,9.23a1.7306,1.7306,0,0,0-.5683-.5933L2.9145.124A.3634.3634,0,0,0,2.8428.08a.6175.6175,0,0,0-.24-.0761A.5969.5969,0,0,0,2.34.0332a.343.343,0,0,0-.1231.06.6117.6117,0,0,0-.2006.2491.6242.6242,0,0,0-.0542.27.2836.2836,0,0,0,.0014.0337L3.12,15.6957a1.7036,1.7036,0,0,0,.23.79.9437.9437,0,0,0,.6153.4409,1.2221,1.2221,0,0,0,.709-.082,2.62,2.62,0,0,0,.9331-.6958L7.68,13.8221,9.86,17.58a.8544.8544,0,0,0,.52.3912.9049.9049,0,0,0,.6079-.0542.3822.3822,0,0,0,.0484-.0235l2.2471-1.2979a.1357.1357,0,0,0,.0249-.0146.8984.8984,0,0,0,.3794-.5215.8475.8475,0,0,0-.0791-.6431l-2.1636-3.7691,3.0367-.6285.0146-.0029a2.6068,2.6068,0,0,0,1.0694-.46,1.2163,1.2163,0,0,0,.4248-.5727A.9348.9348,0,0,0,15.9168,9.23Zm-.6723.5083a.4582.4582,0,0,1-.1626.1978,1.8456,1.8456,0,0,1-.7427.3091l-.0147.0029-3.5684.7383a.3938.3938,0,0,0-.3062.4644.3887.3887,0,0,0,.0439.1172h-.0014L12.927,15.807a.0754.0754,0,0,1,.0015.0484.1139.1139,0,0,1-.041.06l-2.2149,1.2789-.003.0014h-.0014a.1073.1073,0,0,0-.022.0118.1073.1073,0,0,1-.0645.0014.0683.0683,0,0,1-.041-.0249L8.087,12.9578a.3931.3931,0,0,0-.5376-.1435.422.422,0,0,0-.0967.0791l-2.4346,2.732a1.8257,1.8257,0,0,1-.6372.4893.4552.4552,0,0,1-.252.041.1839.1839,0,0,1-.1128-.0894.9513.9513,0,0,1-.11-.4277L2.78.9868l12.1277,8.3a.9651.9651,0,0,1,.315.3091A.1793.1793,0,0,1,15.2445,9.738Z"/></svg>