<svg xmlns="http://www.w3.org/2000/svg" width="18" height="18" viewBox="0 0 18 18"><defs><style>.a{fill:none;stroke:#cd5257;stroke-miterlimit:10;}.b{fill:#fff;}</style></defs><circle class="a" cx="9.0302" cy="9" r="7.9689"/><path class="b" d="M17.9433,13.676a.45.45,0,0,1-.2069.1636.9637.9637,0,0,1-.4261.0611l-.0055,0L16.16,13.8321l.4093,1.5543a.313.313,0,0,1-.0338.2372.3315.3315,0,0,1-.1857.15l-.01.0029-.9274.2468-.02.0037a.3346.3346,0,0,1-.2223-.0392.316.316,0,0,1-.1479-.19l-.4162-1.5516-.9643.6308a.9675.9675,0,0,1-.4.1585.452.452,0,0,1-.261-.039.3491.3491,0,0,1-.1772-.2167.6293.6293,0,0,1-.006-.3041l1.0377-5.4849.0027-.0122a.2314.2314,0,0,1,.0453-.091.2254.2254,0,0,1,.0957-.07.1277.1277,0,0,1,.05-.01.2209.2209,0,0,1,.0964.0148.2276.2276,0,0,1,.0785.05.1392.1392,0,0,1,.0214.0226l3.6191,4.2375A.64.64,0,0,1,17.99,13.4.3456.3456,0,0,1,17.9433,13.676Z"/><path d="M15.35,15.7384l.0633.0025A.1378.1378,0,0,0,15.35,15.7384ZM17.99,13.4a.64.64,0,0,0-.1457-.2666L14.2249,8.896a.1392.1392,0,0,0-.0214-.0226.2276.2276,0,0,0-.0785-.05.2209.2209,0,0,0-.0964-.0148.1277.1277,0,0,0-.05.01.2254.2254,0,0,0-.0957.07.2314.2314,0,0,0-.0453.091l-.0027.0122-1.0377,5.4849a.6293.6293,0,0,0,.006.3041.3491.3491,0,0,0,.1772.2167.452.452,0,0,0,.261.039.9675.9675,0,0,0,.4-.1585l.9643-.6308.4162,1.5516a.316.316,0,0,0,.1479.19.3346.3346,0,0,0,.2223.0392l.02-.0037.9274-.2468.01-.0029a.3315.3315,0,0,0,.1857-.15.313.313,0,0,0,.0338-.2372L16.16,13.8321l1.1448.0683.0055,0a.9637.9637,0,0,0,.4261-.0611.45.45,0,0,0,.2069-.1636A.3456.3456,0,0,0,17.99,13.4Zm-.289.1167a.1693.1693,0,0,1-.0772.0549.68.68,0,0,1-.2949.0388l-.0055,0-1.3453-.08a.1456.1456,0,0,0-.154.1363.14.14,0,0,0,.0044.046l-.0005,0,.4607,1.7483a.0286.0286,0,0,1-.0042.0174.0426.0426,0,0,1-.02.0175l-.914.2431-.0012,0-.0006,0-.0089.0021a.04.04,0,0,1-.0232-.0057.0248.0248,0,0,1-.0122-.0129l-.4688-1.7453a.1453.1453,0,0,0-.1781-.1031.1561.1561,0,0,0-.0422.0189l-1.1325.7408a.6726.6726,0,0,1-.2747.1133.1679.1679,0,0,1-.0939-.01.0682.0682,0,0,1-.0317-.0428.3527.3527,0,0,1,.002-.1633l1.01-5.34,3.53,4.1321a.3558.3558,0,0,1,.0827.1407A.0666.0666,0,0,1,17.7007,13.5168Z"/></svg>