<svg xmlns="http://www.w3.org/2000/svg" width="20" height="20" viewBox="0 0 20 20"><defs><style>.a{fill:#cd5257;}.b{fill:#fff;}.c{fill:#383838;}</style></defs><path class="a" d="M8.5418,3.1392A6.3126,6.3126,0,1,1,2.2292,9.4518v0A6.32,6.32,0,0,1,8.5418,3.1392m0-2.142a8.4545,8.4545,0,1,0,8.4546,8.4545A8.4545,8.4545,0,0,0,8.5418.9972Z"/><path class="b" d="M19.9518,13.2953a.9021.9021,0,0,1-.3387.4059,1.9318,1.9318,0,0,1-.8114.2951l-.0109.0016-2.2746.3362,1.4418,2.8817a.6278.6278,0,0,1,.0314.48.6658.6658,0,0,1-.303.37l-.0191.01-1.7182.8654a.3035.3035,0,0,1-.0368.0153.6707.6707,0,0,1-.4523.0143.6333.6333,0,0,1-.3683-.3114l-1.4542-2.8738-1.6327,1.6341a1.943,1.943,0,0,1-.72.4755.9078.9078,0,0,1-.5282.0308.7.7,0,0,1-.4367-.3524,1.2618,1.2618,0,0,1-.1368-.5943L9.9655,5.7893l0-.025a.4639.4639,0,0,1,.0515-.1973.4544.4544,0,0,1,.1579-.1762.2561.2561,0,0,1,.0936-.0392.4434.4434,0,0,1,.1954-.0105.4529.4529,0,0,1,.1746.0666.2659.2659,0,0,1,.0512.0355l8.843,6.8283a1.2832,1.2832,0,0,1,.3955.4634A.6932.6932,0,0,1,19.9518,13.2953Z"/><path class="c" d="M15.7093,18.408l.1252-.0212A.2768.2768,0,0,0,15.7093,18.408Zm4.22-5.6727a1.2831,1.2831,0,0,0-.3956-.4633L10.6905,5.4436a.2659.2659,0,0,0-.0512-.0355.4561.4561,0,0,0-.1746-.0666.442.442,0,0,0-.1954.0106.2537.2537,0,0,0-.0936.0392.4535.4535,0,0,0-.1591.1758.4632.4632,0,0,0-.0515.1973l0,.025.2173,11.19a1.2611,1.2611,0,0,0,.1368.5942.6994.6994,0,0,0,.4367.3524.9061.9061,0,0,0,.5282-.0308,1.9406,1.9406,0,0,0,.72-.4755l1.6327-1.634,1.4541,2.8734a.6328.6328,0,0,0,.3683.3115.67.67,0,0,0,.4523-.0144.2746.2746,0,0,0,.0368-.0153l1.7182-.8654.0191-.01a.666.666,0,0,0,.3029-.37.628.628,0,0,0-.0314-.48l-1.4417-2.8817,2.2745-.3361.0109-.0016a1.9318,1.9318,0,0,0,.8114-.2951.9032.9032,0,0,0,.3388-.406A.6937.6937,0,0,0,19.929,12.7353Zm-.5192.3477a.34.34,0,0,1-.1289.14,1.3678,1.3678,0,0,1-.5628.1973l-.0109.0016-2.6728.3951a.2925.2925,0,0,0-.2188.4194l-.001,0,1.6223,3.24a.0554.0554,0,0,1-.0011.0353.0843.0843,0,0,1-.0329.0428l-1.6937.8527-.0022.001-.0011,0-.0168.0078a.08.08,0,0,1-.0472-.0017.0511.0511,0,0,1-.0292-.02L13.976,15.1621a.2915.2915,0,0,0-.3915-.1292l0,0a.3155.3155,0,0,0-.0749.0544l-1.9181,1.9189a1.35,1.35,0,0,1-.4924.3352.3368.3368,0,0,1-.1883.02.1359.1359,0,0,1-.08-.0708.7071.7071,0,0,1-.0632-.3213L10.5551,6.0757,19.18,12.7339a.7166.7166,0,0,1,.22.2421A.1338.1338,0,0,1,19.41,13.083Z"/></svg>