<svg xmlns="http://www.w3.org/2000/svg" xmlns:xlink="http://www.w3.org/1999/xlink" width="22" height="22" viewBox="0 0 22 22"><defs><style>.a{opacity:0.8;}.b,.g{opacity:0.7;}.c{opacity:0.3;}.d{opacity:0.9;}.e{opacity:0.2;}.f{opacity:0.22;fill:url(#a);}.g,.h{fill:red;fill-rule:evenodd;}.i{opacity:0.75;}</style><radialGradient id="a" cx="11" cy="11" r="11" gradientUnits="userSpaceOnUse"><stop offset="0.2104" stop-color="red"/><stop offset="0.9534" stop-color="#274454" stop-opacity="0"/></radialGradient></defs><g class="a"><circle class="f" cx="11" cy="11" r="11"/><path class="g" d="M18.6833,5.9478l-.3127-1.9295-4.0293-.5634c.0059-.0568-.1477-.9508-.1477-.9508a1.69,1.69,0,0,0-.3181-.9218,1.2447,1.2447,0,0,0-.8425-.4952L9.4859.5991a1.2194,1.2194,0,0,0-.93.2456,1.8094,1.8094,0,0,0-.56.7824s-.4651.8144-.4774.878L3.2776,1.942,2.4555,3.7154,17.1119,5.7317Z"/><path class="h" d="M3.9794,6.5108V7.8416h.7313l1.1388,9.79.0418.3056.2612.1972.8672.631.2194.1577h7.5221l.2193-.1577.8672-.631.2717-.1972.0311-.3056,1.1388-9.79h.5956V6.5108Zm9.9641,10.6431H8.066l-.3607-.2532L6.7177,8.1172h8.5646l-.9876,8.7835Z"/></g></svg>