<svg xmlns="http://www.w3.org/2000/svg" width="20" height="20" viewBox="0 0 20 20"><defs><style>.a{fill:#ff0200;}</style></defs><path class="a" d="M7.7622,8.1809c-.0174,1.3536-.0071,2.7082-.0071,4.0621,0,1.3925-.0093,2.7842.0071,4.1767.0032.2878-.0718.3906-.3606.3608a3.1455,3.1455,0,0,0-.6886.001c-.3608.0442-.4739-.0654-.4708-.4491.0185-2.5036.0083-5.0072.0109-7.5108,0-.3423-.112-.795.0606-.999.2025-.2375.6732-.0327,1.0216-.0842C7.7078,7.6835,7.7664,7.8511,7.7622,8.1809Zm3.0042.7585c.0062,2.4779-.0021,4.9551.01,7.4327.0011.3011-.05.4465-.3863.4081-.3659-.0412-.8495.151-1.074-.0689-.2406-.2374-.073-.7246-.0763-1.1008-.0108-1.1233-.004-2.2476-.004-3.371,0-1.3925.0051-2.7842-.0052-4.1767-.001-.24.0483-.3444.3135-.3258.3915.0287.9086-.1254,1.146.0708C10.94,8.0135,10.7653,8.5489,10.7664,8.9394Zm2.9877-.07c.0072,2.5058-.002,5.01.0109,7.516.0011.32-.0811.4337-.4018.3937-.3515-.0436-.8232.151-1.0268-.0792-.1742-.1984-.0595-.6578-.0606-1.001-.0031-1.1634-.001-2.3269-.001-3.49,0-1.3668.0062-2.7349-.0051-4.1028-.0031-.262.0278-.4018.3423-.37.3658.0381.8494-.112,1.0719.073C13.92,8.0042,13.753,8.5036,13.7541,8.87Zm4.3166-4.1583c-.45.0864-.5406-.1119-.5337-.5336.0133-.7358-.2251-.94-.9764-.9466-.78-.0072-1.56-.0225-2.3391.0021-.3267.0093-.4214-.0653-.4275-.4111A2.6542,2.6542,0,0,0,11.1085.2c-.8161.04-1.6363.0164-2.4544.0145a1.8965,1.8965,0,0,0-.8828.2178A2.6538,2.6538,0,0,0,6.2329,2.8912c-.0051.2671-.0709.3442-.3412.34-.8681-.0144-1.7378-.0093-2.6074.0047a.7209.7209,0,0,0-.8059.7739,1.6045,1.6045,0,0,0-.0041.3443c.04.2832-.0586.407-.3515.3556-.3186-.0565-.4683.039-.4225.4019.0453.3514-.1027.8252.0782,1.0345.21.2427.6989.0987,1.06.0782.3658-.0218.4059.1223.4059.4348-.0061,3.6433.0206,7.2855-.0091,10.928a2.3559,2.3559,0,0,0,1.8344,2.15,1.3953,1.3953,0,0,0,.4183.0218q4.4229.0014,8.8459.003a.7882.7882,0,0,1,.4132.037H14.9c.0154-.0595.0606-.0667.1141-.0739A2.3323,2.3323,0,0,0,16.7781,17.6c-.0442-2.2108-.0092-4.4224-.0041-6.6331.003-1.47.0164-2.9394.0109-4.4092-.0011-.2487.0606-.3421.32-.3257.3186.0195.6392-.0072.9583-.0031.1511.002.2374-.0226.2343-.2046-.0061-.3576.002-.7152.0164-1.0729C18.3214,4.77,18.2505,4.6774,18.0707,4.7112ZM7.79,2.8541A1.0976,1.0976,0,0,1,8.8863,1.7555q.0417,0,.0832.0031,1.11-.0186,2.22.0072a1.1414,1.1414,0,0,1,1.048,1.2278q-.0032.04-.009.079c-.0326.2138-.1716.149-.2815.15-.6506.0053-1.3022.0032-1.9528.0032-.6259,0-1.2517-.02-1.8766.0072C7.8006,3.2469,7.757,3.1182,7.79,2.8541Zm7.4772,14.3238c0,.1018-.004.2045-.0093.3063-.0326.5591-.2579.778-.818.78q-3.2606.0075-6.52.0092c-.7676.001-1.5344-.0031-2.3011-.0083-.61-.0041-.8438-.2219-.8458-.82-.0062-1.8026-.0021-3.6054-.0021-5.4081H4.7242c0-1.8149.0072-3.63-.0061-5.446-.0021-.29.0791-.3607.3648-.3594q4.9285.0156,9.8572.0021c.2446-.001.3587.0267.3577.3207C15.2793,10.0957,15.2752,13.6362,15.2669,17.1779Zm-10.1977,2.56c1.0573-.0048,2.1148-.0126,3.1721-.0138q3.06-.0035,6.1191.0031c.1282,0,.2817-.0735.3866.0729H5.08A.1856.1856,0,0,1,5.0692,19.7378ZM7.7622,8.1809c-.0174,1.3536-.0071,2.7082-.0071,4.0621,0,1.3925-.0093,2.7842.0071,4.1767.0032.2878-.0718.3906-.3606.3608a3.1455,3.1455,0,0,0-.6886.001c-.3608.0442-.4739-.0654-.4708-.4491.0185-2.5036.0083-5.0072.0109-7.5108,0-.3423-.112-.795.0606-.999.2025-.2375.6732-.0327,1.0216-.0842C7.7078,7.6835,7.7664,7.8511,7.7622,8.1809Zm3.0042.7585c.0062,2.4779-.0021,4.9551.01,7.4327.0011.3011-.05.4465-.3863.4081-.3659-.0412-.8495.151-1.074-.0689-.2406-.2374-.073-.7246-.0763-1.1008-.0108-1.1233-.004-2.2476-.004-3.371,0-1.3925.0051-2.7842-.0052-4.1767-.001-.24.0483-.3444.3135-.3258.3915.0287.9086-.1254,1.146.0708C10.94,8.0135,10.7653,8.5489,10.7664,8.9394Zm2.9877-.07c.0072,2.5058-.002,5.01.0109,7.516.0011.32-.0811.4337-.4018.3937-.3515-.0436-.8232.151-1.0268-.0792-.1742-.1984-.0595-.6578-.0606-1.001-.0031-1.1634-.001-2.3269-.001-3.49,0-1.3668.0062-2.7349-.0051-4.1028-.0031-.262.0278-.4018.3423-.37.3658.0381.8494-.112,1.0719.073C13.92,8.0042,13.753,8.5036,13.7541,8.87Zm-2.9877.07c.0062,2.4779-.0021,4.9551.01,7.4327.0011.3011-.05.4465-.3863.4081-.3659-.0412-.8495.151-1.074-.0689-.2406-.2374-.073-.7246-.0763-1.1008-.0108-1.1233-.004-2.2476-.004-3.371,0-1.3925.0051-2.7842-.0052-4.1767-.001-.24.0483-.3444.3135-.3258.3915.0287.9086-.1254,1.146.0708C10.94,8.0135,10.7653,8.5489,10.7664,8.9394Zm-3.0042,7.48c.0032.2878-.0718.3906-.3606.3608a3.1517,3.1517,0,0,0-.6886.0009c-.3608.0443-.4739-.0653-.4708-.4491.0185-2.5035.0083-5.0072.0109-7.5107,0-.3423-.112-.795.0606-.9991.2025-.2374.6732-.0326,1.0216-.0842.3721-.0544.4306.1131.4265.4429-.0174,1.3536-.0072,2.7082-.0072,4.0621C7.7551,13.6352,7.7461,15.0268,7.7622,16.4194Zm5.9919-7.55c.0072,2.5058-.002,5.01.0109,7.516.0011.32-.0811.4337-.4018.3937-.3515-.0436-.8232.151-1.0268-.0792-.1742-.1984-.0595-.6578-.0606-1.001-.0031-1.1634-.001-2.3269-.001-3.49,0-1.3668.0062-2.7349-.0051-4.1028-.0031-.262.0278-.4018.3423-.37.3658.0381.8494-.112,1.0719.073C13.92,8.0042,13.753,8.5036,13.7541,8.87Z"/></svg>