<svg xmlns="http://www.w3.org/2000/svg" width="18" height="18" viewBox="0 0 18 18"><defs><style>.a{fill:#ca8ca3;}.b{fill:#b07085;}.c{fill:#b37690;}.d{fill:#a37179;}.e{fill:#d5a4b7;}</style></defs><path class="a" d="M1.8727,9.5828q.5391-.4892,1.0784-.9783.5084-.46,1.0186-.9175Q4.776,6.96,5.5818,6.2321q.6507-.5881,1.3-1.1777.7865-.7107,1.5744-1.42.5751-.5193,1.1492-1.04.711-.6417,1.4233-1.2823.4238-.3822.8459-.7661a1.4262,1.4262,0,0,1,.5731-.3187l.2047-.003a1.212,1.212,0,0,1,.63.2942c.3678.2671.7355.5343,1.0962.8111.4394.3374.8741.68,1.2989,1.0361.3483.2916.6919.5884,1.0271.8951.2955.27.5912.54.8771.8207.05.0487.12.08.1395.1563a.8664.8664,0,0,1,.0683.3733c-.0031.04-.0089.079-.0119.1183a.693.693,0,0,1-.3011.4479c-.1474.1338-.2831.2792-.4269.4164-.1663.1587-.33.3207-.4936.4826-.3551.3518-.7152.6986-1.0708,1.05-.1939.1916-.3909.38-.5855.5711-.3529.346-.708.69-1.0594,1.0373q-.3058.3024-.6161.6006c-.3657.3531-.7235.7143-1.0941,1.0623-.12.1128-.2346.2315-.3515.3475-.1754.174-.3532.3458-.5289.52-.3392.3356-.6829.6667-1.0227,1.0017-.2042.2014-.411.4-.6159.601-.3449.338-.6924.6732-1.0356,1.0129-.0806.08-.1673.1542-.2434.2384a1.2,1.2,0,0,1-.778.362.4353.4353,0,0,1-.1523-.0122.8471.8471,0,0,1-.4633-.2347c-.1579-.1512-.3406-.2726-.5056-.4159-.2527-.22-.5088-.4352-.7654-.65-.2522-.2115-.5013-.4266-.7531-.6386-.21-.1772-.4191-.3568-.6288-.5349q-.3893-.3306-.7788-.6608-.3641-.3078-.7267-.617c-.2289-.1949-.4548-.3933-.6889-.5821a.0808.0808,0,0,1-.0161-.02,1.5825,1.5825,0,0,0-.18-.1882A.2559.2559,0,0,1,1.8727,9.5828Z"/><path class="b" d="M17.71,4.2448a.9529.9529,0,0,1,.23.4906l.001.0682c-.0223.12-.0361.2422-.07.3606a.1679.1679,0,0,1-.0274.0675c-.1256.1026-.234.2236-.35.3358q-.3341.3222-.6676.6454-.5232.5064-1.0486,1.0108c-.2556.2462-.51.4936-.7664.7389q-.5264.5034-1.0493,1.01-.3771.3636-.7545.7267-.5232.5005-1.043,1.0044-.383.37-.7668.7385-.5282.5076-1.0552,1.0163-.3709.3576-.7423.7148c-.3588.3438-.7151.69-1.0738,1.0338-.2172.2082-.4271.4242-.6522.6241-.0251.0223-.0462.0521-.0866.0448a4.9618,4.9618,0,0,1-.3809-.36c-.02-.0192-.04-.045-.0025-.0694a.98.98,0,0,0,.5673-.0969,1.06,1.06,0,0,0,.3622-.2606q.3963-.4038.805-.7956c.223-.2141.4416-.4326.6632-.648q.3356-.3261.6691-.6543c.2109-.206.4228-.4112.6331-.6179q.34-.3339.681-.6664.3067-.3008.6149-.6c.3451-.3368.692-.6719,1.0341-1.0118.187-.1858.38-.366.567-.5517q.5349-.53,1.0754-1.0548c.2144-.2068.4265-.4158.64-.6239q.5054-.4935,1.01-.9877c.2122-.2089.4271-.4151.64-.6239.0888-.0874.1759-.1773.2687-.26a.48.48,0,0,0,.1313-.34.561.561,0,0,0-.06-.3715A.0246.0246,0,0,1,17.71,4.2448Z"/><path class="c" d="M7.4042,14.4467c-.0231.0407.015.0548.0346.0746.115.116.2312.2308.347.3459.0087.0526-.0341.0761-.064.1017a2.4187,2.4187,0,0,0-.5092.6431c-.36.6243-.7367,1.2391-1.1074,1.8573a.8184.8184,0,0,1-.3052.2612.89.89,0,0,1-.86-.1649c-.97-.7759-1.9131-1.5817-2.8189-2.4317C1.4642,14.5171.8252,13.8824.2151,13.2193A.7073.7073,0,0,1,.08,12.5766a1.7425,1.7425,0,0,1,.2276-.5813c.2893-.4818.5436-.9843.86-1.45a1.0471,1.0471,0,0,1,.5228-.437.5335.5335,0,0,1,.3055-.0449.1345.1345,0,0,1,.0885.0444,4.4422,4.4422,0,0,1,.3733.3056c.277.2289.5491.4636.8226.6967.2067.1763.4115.3548.6187.5306.2523.214.5067.4257.7593.6393.1966.1663.3915.3344.5878.501q.3979.3375.7965.674c.1963.1665.3876.3392.5888.4994.1568.1249.3042.2616.465.3807A.64.64,0,0,0,7.4042,14.4467Z"/><path class="d" d="M5.8,17.7305c-.0006-.04.0385-.0413.0595-.0537a1.0937,1.0937,0,0,0,.3542-.4249q.3568-.5974.7132-1.1953c.1463-.2455.2838-.4968.4415-.7346a1.5529,1.5529,0,0,1,.293-.3285.6792.6792,0,0,0,.1244-.1263.7741.7741,0,0,0,.2007-.1651c.2428-.2345.48-.4749.7243-.7078q.2461-.2349.4908-.471c.2688-.26.541-.5171.8079-.7794.1555-.1529.3168-.3.4723-.4533.2666-.2625.5374-.5208.807-.78.147-.1414.296-.2808.4428-.4224.2836-.2737.5642-.55.85-.8216.1687-.16.3352-.3221.5029-.483.2639-.2531.526-.5081.79-.7613q.38-.3649.7594-.7313c.2636-.2535.529-.505.79-.7611.1618-.1587.3286-.3123.49-.4715.2665-.2626.5374-.5208.8069-.78.1531-.1474.3077-.2932.4608-.4407.1878-.1809.3744-.3632.5627-.5437a.2056.2056,0,0,1,.0995-.0616c-.39.584-.752,1.1853-1.1528,1.7627a12.2318,12.2318,0,0,1-1.55,1.7513c-.5693.5558-1.13,1.1206-1.6945,1.6812q-1.8816,1.8678-3.7633,3.7355-1.0953,1.0869-2.1909,2.1734c-.3368.3343-.67.6724-1.0115,1.0017a1.9574,1.9574,0,0,1-.5341.3558A.2945.2945,0,0,1,5.8,17.7305Z"/><path class="e" d="M2.084,10.1076a.68.68,0,0,0-.6224.15,1.0434,1.0434,0,0,0-.2551.2574.1718.1718,0,0,1-.0393.03,4.4963,4.4963,0,0,1,.4172-.64,1.7979,1.7979,0,0,1,.2883-.3223.3.3,0,0,0,.0924.3859C2.0105,10.0071,2.0715,10.0385,2.084,10.1076Z"/></svg>