<svg xmlns="http://www.w3.org/2000/svg" xmlns:xlink="http://www.w3.org/1999/xlink" width="22" height="22" viewBox="0 0 22 22"><defs><style>.a{opacity:0.8;}.b{opacity:0.7;}.c,.h{opacity:0.3;}.d{opacity:0.9;}.e,.f{opacity:0.2;}.f{fill:url(#a);}.g{fill:#ffa1e0;}.h{fill:url(#b);}.i{opacity:0.75;}</style><radialGradient id="a" cx="11" cy="11" r="11" gradientUnits="userSpaceOnUse"><stop offset="0.2104" stop-color="#ffa1e0"/><stop offset="0.9534" stop-color="#274454" stop-opacity="0"/></radialGradient><linearGradient id="b" x1="0.8612" y1="19.3037" x2="19.9132" y2="19.3037" gradientUnits="userSpaceOnUse"><stop offset="0" stop-color="#ffa1e0" stop-opacity="0.3"/><stop offset="0.0068" stop-color="#ffa1e0" stop-opacity="0.3054"/><stop offset="0.496" stop-color="#ffa1e0" stop-opacity="0.6763"/><stop offset="0.8375" stop-color="#ffa1e0" stop-opacity="0.9095"/><stop offset="1" stop-color="#ffa1e0"/></linearGradient></defs><g class="a"><circle class="f" cx="11" cy="11" r="11"/><path class="g" d="M5.0941,18.5455a.292.292,0,0,0-.1067-.1406Q3.7547,17.17,2.5209,15.9357a3.0641,3.0641,0,0,1,.0086-4.39q4.5433-4.5427,9.0857-9.0864a1.628,1.628,0,0,1,2.3763-.0082Q16.4248,4.88,18.8542,7.3136a1.6256,1.6256,0,0,1-.008,2.3659q-4.3443,4.3458-8.6907,8.6893a1.28,1.28,0,0,1-.1654.12l.0331.0567m-2.4494-.3666a1.7077,1.7077,0,0,0,1.2092-.5007Q10.6255,15.84,12.4657,14c.0643-.0641.0659-.0978.0008-.1628q-2.5026-2.497-5-4.9993c-.06-.06-.0945-.0753-.1634-.0062-1.2311,1.2359-2.47,2.4642-3.6965,3.7047a1.703,1.703,0,0,0,.0011,2.3889c.9148.9287,1.84,1.8472,2.7649,2.7662A1.6986,1.6986,0,0,0,7.5738,18.1789Z"/><path class="h" d="M19.2246,20.0593c-.0426.0028-11.7055.0028-17.493.0028a.9374.9374,0,0,1-.8544-.6727c-.1107-.4144.3719-.843.8288-.843,1.07-.0028,2.14,0,3.21,0H19.08a.799.799,0,0,1,.8146.5592A.7423.7423,0,0,1,19.2246,20.0593Z"/></g></svg>