<svg xmlns="http://www.w3.org/2000/svg" width="18" height="18" viewBox="0 0 18 18"><defs><style>.a{fill:#feab33;}.b{fill:#fecb4d;}.c{fill:#fff;}</style></defs><path class="a" d="M15.701,8.2977c-.0151.3082-.2518.3933-.4859.48-1.152.4261-2.2991.8663-3.46,1.2682a.8473.8473,0,0,0-.5913.6486c-.4187,1.4678-.8552,2.9305-1.29,4.3935-.0834.28-.1276.6229-.5245.627-.3934.0041-.4525-.3229-.5378-.6107-.4386-1.48-.8873-2.9577-1.309-4.4428a.8127.8127,0,0,0-.5687-.6094C5.7931,9.6468,4.6608,9.2181,3.5247,8.8c-.2685-.0989-.5607-.1911-.5572-.5427.0036-.3568.3169-.43.5763-.5266,1.134-.4239,2.2674-.85,3.408-1.2557a.7588.7588,0,0,0,.5421-.5624c.4222-1.4484.8755-2.8877,1.3175-4.33.088-.2873.1518-.6095.5461-.6031.3675.0059.4246.3184.5063.5836.4237,1.375.8663,2.7448,1.2492,4.1311a1.1423,1.1423,0,0,0,.8424.87c1.0971.3692,2.1757.7931,3.2618,1.1949C15.473,7.853,15.7142,7.9609,15.701,8.2977Z"/><path class="b" d="M6.4883,13.3611a.4546.4546,0,0,1-.3853.4454c-.9153.1154-1.1547.7652-1.2706,1.532-.0208.1379-.0683.2717-.1017.4079a.467.467,0,0,1-.4635.42c-.3125.0072-.4212-.2093-.4863-.46-.0925-.3561-.1942-.7115-.2572-1.0732a.7037.7037,0,0,0-.593-.6392,2.5751,2.5751,0,0,1-.3941-.1453c-.2306-.0909-.4717-.1719-.4762-.4861-.0048-.3347.2214-.4741.4936-.5187.7788-.1276,1.0052-.6754,1.14-1.3544.0649-.3274.045-.82.57-.8132.5121.0066.5082.479.5662.8178a1.422,1.422,0,0,0,1.197,1.3671A.5112.5112,0,0,1,6.4883,13.3611Z"/><path class="b" d="M2.279,5.5792a.45.45,0,0,1-.4169-.268A1.1481,1.1481,0,0,1,1.72,4.9724,1.277,1.277,0,0,0,.6177,3.8786C.3473,3.8114.06,3.72.0575,3.35c-.0029-.375.298-.4764.56-.5285A1.3521,1.3521,0,0,0,1.74,1.6741c.0593-.2516.163-.5159.5044-.5235.3377-.0075.4721.2363.5281.4943A1.4312,1.4312,0,0,0,3.9793,2.8461c.27.0556.51.19.5.5188a.5185.5185,0,0,1-.4849.4823A1.4843,1.4843,0,0,0,2.742,5.1334.5314.5314,0,0,1,2.279,5.5792Z"/><path class="c" d="M17.92,13.1918a.5814.5814,0,0,1-.2029.2736,1.2461,1.2461,0,0,1-.5108.22l-.007.0014-1.45.3,1.0334,1.8a.4045.4045,0,0,1,.0378.3072.4292.4292,0,0,1-.1812.2491l-.0119.007-1.0733.62-.0231.0112a.4319.4319,0,0,1-.29.0259.4085.4085,0,0,1-.2484-.1868L13.95,15.0257l-.99,1.1111a1.25,1.25,0,0,1-.4457.3323.5832.5832,0,0,1-.3386.0392.451.451,0,0,1-.2939-.2106.812.812,0,0,1-.11-.3771L11.22,8.732,11.22,8.7159a.2988.2988,0,0,1,.0259-.1288.2926.2926,0,0,1,.0958-.1189A.1642.1642,0,0,1,11.4,8.44a.2856.2856,0,0,1,.1253-.014.2941.2941,0,0,1,.1147.0364.1734.1734,0,0,1,.0343.021l5.939,4.0659a.8257.8257,0,0,1,.2714.2833A.4465.4465,0,0,1,17.92,13.1918Z"/><path d="M15.38,16.6363l.08-.0181A.1788.1788,0,0,0,15.38,16.6363Zm2.5048-3.8042a.8257.8257,0,0,0-.2714-.2833l-5.939-4.0659a.1734.1734,0,0,0-.0343-.021.2941.2941,0,0,0-.1147-.0364A.2856.2856,0,0,0,11.4,8.44a.1642.1642,0,0,0-.0588.0287.2926.2926,0,0,0-.0958.1189.2988.2988,0,0,0-.0259.1288l.0007.0161.5521,7.1886a.812.812,0,0,0,.11.3771.451.451,0,0,0,.2939.2106.5832.5832,0,0,0,.3386-.0392,1.25,1.25,0,0,0,.4457-.3323l.99-1.1111L14.9915,16.82a.4085.4085,0,0,0,.2484.1868.4319.4319,0,0,0,.29-.0259l.0231-.0112,1.0733-.62.0119-.007a.4292.4292,0,0,0,.1812-.2491.4045.4045,0,0,0-.0378-.3072l-1.0334-1.8,1.45-.3.007-.0014a1.2461,1.2461,0,0,0,.5108-.22.5814.5814,0,0,0,.2029-.2736A.4465.4465,0,0,0,17.8847,12.8321Zm-.3211.2428a.2188.2188,0,0,1-.0777.0945.88.88,0,0,1-.3547.1476l-.007.0014-1.7045.3527a.188.188,0,0,0-.1462.2218.1848.1848,0,0,0,.021.0559h-.0007l1.1629,2.0249a.0361.0361,0,0,1,.0007.0231.0546.0546,0,0,1-.02.0287l-1.0579.6108-.0014.0007h-.0007l-.0105.0056a.0513.0513,0,0,1-.0308.0007.0325.0325,0,0,1-.02-.0119l-1.172-2.0186a.1878.1878,0,0,0-.2568-.0685.2021.2021,0,0,0-.0462.0378L12.679,15.887a.8719.8719,0,0,1-.3043.2337.217.217,0,0,1-.12.02.0876.0876,0,0,1-.0538-.0427.4544.4544,0,0,1-.0525-.2043L11.61,8.895l5.7928,3.9644a.4615.4615,0,0,1,.15.1477A.0852.0852,0,0,1,17.5636,13.0749Z"/></svg>