<svg xmlns="http://www.w3.org/2000/svg" width="18" height="18" viewBox="0 0 18 18"><defs><style>.a{fill:#fecc51;}.b{fill:#fecc50;}.c{fill:#8898a5;}.d{fill:#66757f;}.e{fill:#8798a5;}.f{fill:#687781;}</style></defs><path class="a" d="M4.8284.0006c.3574.7115.71,1.4251,1.0741,2.1334.1735.3379.1786.6465-.1951.82-.3513.163-.5611-.08-.7071-.3648-.2841-.5545-.5464-1.12-.84-1.67A.9229.9229,0,0,1,4.2248.0006Z"/><path class="b" d="M0,4.2255a.9734.9734,0,0,1,1.0545-.0008c.5225.29,1.0693.5363,1.599.814.2663.1395.4453.3619.3.6708a.4934.4934,0,0,1-.752.2244Q1.1014,5.38,0,4.829Z"/><path class="c" d="M13.8815,10.261c1.0431,1.2593,2.2818,2.3282,3.4123,3.5026.9383.9747.9469,1.6867-.006,2.6522-.3354.34-.67.6812-1.0141,1.0117a1.513,1.513,0,0,1-2.3787-.0119q-3.0768-3.0539-6.1338-6.1277c-.2295-.23-.4326-.5035-.82-.4259a.203.203,0,0,1,.0972-.2515,15.4134,15.4134,0,0,0,3.2685-3.135c.1369-.1642.25-.3833.516-.3853a2.58,2.58,0,0,0,1.0683,1.1759A6.8236,6.8236,0,0,1,13.8815,10.261Z"/><path class="d" d="M10.8228,7.09A14.8263,14.8263,0,0,1,6.9411,10.862c-1.12.2909-1.65-.5381-2.27-1.1952-.1977-.3276.0517-.5235.2358-.7107q2.0082-2.041,4.0492-4.0492c.1875-.1845.3838-.4326.7112-.2361C10.3777,5.3218,11.219,5.91,10.8228,7.09Z"/><path class="e" d="M9.6669,4.6708a.7194.7194,0,0,0-.5117.2792Q7.0542,7.0542,4.95,9.1552a.718.718,0,0,0-.2792.5116L3.4635,8.4556A41.2008,41.2008,0,0,1,8.4549,3.4639Z"/><path class="d" d="M8.4549,3.4639Q6.0677,6.0682,3.4635,8.4556c-.8677-.7805-.8754-.986-.06-1.8026q1.6231-1.6258,3.249-3.2491C7.4692,2.5886,7.6753,2.5963,8.4549,3.4639Z"/><path class="b" d="M2.0421,1.529A10.5644,10.5644,0,0,1,4.5063,3.9806a.4776.4776,0,0,1-.2311.4438.4124.4124,0,0,1-.5546-.0232Q2.6689,3.3775,1.6429,2.3274a.4182.4182,0,0,1-.0387-.555A.4727.4727,0,0,1,2.0421,1.529Z"/><path class="f" d="M13.8815,10.261a14.2521,14.2521,0,0,1-1.99-1.9949c.4268-.5655.875-.5719,1.3523-.0594.2021.2169.4073.4329.6293.6288C14.414,9.3129,14.4452,9.7823,13.8815,10.261Z"/></svg>