<svg xmlns="http://www.w3.org/2000/svg" xmlns:xlink="http://www.w3.org/1999/xlink" width="22" height="22" viewBox="0 0 22 22"><defs><style>.a{opacity:0.8;}.b{opacity:0.7;}.c{opacity:0.3;}.d{opacity:0.9;}.e{opacity:0.2;}.f{opacity:0.15;fill:url(#a);}.g{fill:url(#b);}.h{fill:aqua;}.i{opacity:0.75;}</style><radialGradient id="a" cx="10.8816" cy="11" r="10.8816" gradientUnits="userSpaceOnUse"><stop offset="0" stop-color="#244e5f" stop-opacity="0.0866"/><stop offset="0.6899" stop-color="aqua"/><stop offset="0.9534" stop-color="#274454" stop-opacity="0"/></radialGradient><linearGradient id="b" x1="2.2152" y1="11.0012" x2="19.548" y2="11.0012" gradientUnits="userSpaceOnUse"><stop offset="0.2248" stop-color="#0ab9e2"/><stop offset="0.7325" stop-color="#1ef1f9"/><stop offset="0.8566" stop-color="#23ffff"/></linearGradient></defs><g class="a"><circle class="f" cx="10.8816" cy="11" r="10.8816"/><g class="c"><path class="g" d="M19.548,10.83l-.641-.2663-1.6317-.6826a6.487,6.487,0,1,0-3.08,6.7016l.7742,1.8565.0666.1582a8.569,8.569,0,0,1-4.1542,1.0656A8.6623,8.6623,0,1,1,19.548,10.83Z"/></g><path class="h" d="M19.33,14.5647l-.4146.142,2.7378,2.7379a.6754.6754,0,0,1,0,.96.6939.6939,0,0,1-.4828.1988.6579.6579,0,0,1-.4714-.1988l-2.204-2.1982-.54-.5454-.6418,1.8915-.3238.9713a.3368.3368,0,0,1-.3124.2273H16.666a.3323.3323,0,0,1-.3124-.21l-.0852-.2044L15.78,17.1777l-.0454-.108-.5283-1.2666L12.7808,9.9752a.3411.3411,0,0,1,.4487-.443l4.0784,1.6983,1.1133.4658.4374.1817.92.3863,2.0165.8407a.3383.3383,0,0,1-.0227.63Z"/></g></svg>