<svg xmlns="http://www.w3.org/2000/svg" width="20" height="20" viewBox="0 0 20 20"><defs><style>.a{fill:#ff0200;}.b{fill:#ff5958;}.c{fill:#292f33;}.d{fill:none;}</style></defs><path class="a" d="M7.2286,17.5569c-.3251.3045-.5783.53-.7357.657a.2741.2741,0,0,1-.3113.0273,1.2937,1.2937,0,0,0-1.2592-.1163A38.6062,38.6062,0,0,1,1.35,19.7468c-.1437-.0787-1.1155-.9581-1.0949-1.1394S1.682,15.5689,1.9421,14.823a.806.806,0,0,0-.1506-.9273A.1467.1467,0,0,1,1.771,13.69c.11-.1335.3079-.3559.5885-.65Z"/><path class="b" d="M19.7451,4.9514S10.26,14.7067,7.2286,17.5569L2.36,13.04C5.0592,10.1387,14.965.25,14.965.25Z"/><polygon class="a" points="19.745 4.951 19.138 5.615 14.277 0.938 14.965 0.25 19.745 4.951"/><polygon class="c" points="18.387 6.31 17.78 6.973 12.919 2.296 13.606 1.609 18.387 6.31"/><polygon class="c" points="8.574 16.122 7.967 16.785 3.106 12.108 3.794 11.421 8.574 16.122"/><line class="d" x1="7.4373" y1="17.752" x2="7.2286" y2="17.5569"/><line class="d" x1="2.3595" y1="13.0403" x2="1.9729" y2="12.681"/><ellipse class="a" cx="10.7491" cy="9.1301" rx="5.6156" ry="2.125" transform="translate(-3.3077 10.2749) rotate(-45)"/></svg>