<svg xmlns="http://www.w3.org/2000/svg" xmlns:xlink="http://www.w3.org/1999/xlink" width="22" height="22" viewBox="0 0 22 22"><defs><style>.a{opacity:0.8;}.b{opacity:0.7;}.c{opacity:0.3;}.d{opacity:0.9;}.e,.f{opacity:0.2;}.f{fill:url(#a);}.g{fill:url(#b);}.h{fill:lime;}.i{opacity:0.75;}</style><radialGradient id="a" cx="11" cy="10.9994" r="11" gradientTransform="translate(0 0.0006)" gradientUnits="userSpaceOnUse"><stop offset="0.2104" stop-color="lime"/><stop offset="0.9534" stop-color="#274454" stop-opacity="0"/></radialGradient><linearGradient id="b" y1="11.0006" x2="22" y2="11.0006" gradientUnits="userSpaceOnUse"><stop offset="0.098" stop-color="#25ff7c"/><stop offset="0.29" stop-color="#24ff87"/><stop offset="0.6304" stop-color="#23ffa6"/><stop offset="0.8259" stop-color="#22ffba"/></linearGradient></defs><g class="a"><circle class="f" cx="11" cy="10.9994" r="10.9997"/><g class="c"><path class="g" d="M11,22A10.9994,10.9994,0,1,1,22,11.0006,11.0122,11.0122,0,0,1,11,22ZM11,1.7094a9.2912,9.2912,0,1,0,9.2917,9.2912A9.3022,9.3022,0,0,0,11,1.7094Z"/></g><path class="h" d="M16,11.0006a.9948.9948,0,0,1-.45.83l-6,4A.998.998,0,0,1,8,15v-8a.9839.9839,0,0,1,.53-.88.9632.9632,0,0,1,1.02.05l6,4A.9948.9948,0,0,1,16,11.0006Z"/></g></svg>