<svg xmlns="http://www.w3.org/2000/svg" width="22" height="22" viewBox="0 0 22 22"><defs><style>.a{fill:#29abe2;fill-rule:evenodd;}</style></defs><path class="a" d="M19.9983,12.404a9.0092,9.0092,0,0,0-9-9.26V1.354a.495.495,0,0,0-.85-.35l-2.79,2.79a.4951.4951,0,0,0,0,.71l2.79,2.79a.5.5,0,0,0,.85-.36V5.144a6.998,6.998,0,0,1,7,7.1,7.0886,7.0886,0,0,1-6.9,6.9,6.9917,6.9917,0,0,1-6.19-10.44.9724.9724,0,0,0-.18-1.18.9982.9982,0,0,0-1.57.2,9.0031,9.0031,0,0,0,8.1,13.42A9.106,9.106,0,0,0,19.9983,12.404Z"/></svg>