<svg xmlns="http://www.w3.org/2000/svg" width="20" height="20" viewBox="0 0 20 20"><defs><style>.a{fill:#29abe2;fill-rule:evenodd;}</style></defs><path class="a" d="M17.9807,11.2453A7.99,7.99,0,0,0,9.9985,3.0324V1.4448a.439.439,0,0,0-.7539-.31L6.77,3.6089a.4391.4391,0,0,0,0,.63L9.2446,6.7131a.4435.4435,0,0,0,.7539-.3193V4.8062a6.2067,6.2067,0,0,1,6.2084,6.2971,6.2871,6.2871,0,0,1-6.12,6.12,6.201,6.201,0,0,1-5.49-9.2594.8625.8625,0,0,0-.16-1.0466.8853.8853,0,0,0-1.3925.1774,7.985,7.985,0,0,0,7.1841,11.9024A8.0762,8.0762,0,0,0,17.9807,11.2453Z"/></svg>