<svg xmlns="http://www.w3.org/2000/svg" width="20" height="20" viewBox="0 0 20 20"><defs><style>.a{fill:#29abe2;}</style></defs><path class="a" d="M18.8148,11.3313v.0032a8.96,8.96,0,0,1-8.5591,8.5591c-.0866.0032-.17.0064-.2534.0064A8.8234,8.8234,0,0,1,2.3158,6.7471a1.3686,1.3686,0,0,1,.2021-.2631A1.2572,1.2572,0,0,1,3.41,6.1183H3.413a1.2729,1.2729,0,0,1,1.1164,1.87,6.28,6.28,0,0,0,5.5563,9.377,6.3711,6.3711,0,0,0,6.2011-6.2011v-.09A6.29,6.29,0,0,0,10.32,4.7966V6.16a.7941.7941,0,0,1-.786.7956h-.01a.7868.7868,0,0,1-.555-.2278L6.3355,4.094a.7908.7908,0,0,1,.0032-1.1292L8.9693.3342A.797.797,0,0,1,9.5371.1a.7686.7686,0,0,1,.555.2342A.7962.7962,0,0,1,10.32.8956v1.37a8.8251,8.8251,0,0,1,8.4949,9.0659Z"/></svg>