<svg xmlns="http://www.w3.org/2000/svg" xmlns:xlink="http://www.w3.org/1999/xlink" width="22" height="22" viewBox="0 0 22 22"><defs><style>.a{opacity:0.8;}.b{opacity:0.7;}.c{opacity:0.3;}.d{opacity:0.9;}.e,.g{opacity:0.2;}.f{opacity:0.75;}.g{fill:url(#a);}.h{fill:#cd67e5;}</style><radialGradient id="a" cx="11" cy="11" r="10.7918" gradientUnits="userSpaceOnUse"><stop offset="0" stop-color="#274454" stop-opacity="0"/><stop offset="0.7235" stop-color="#e671ff"/><stop offset="1" stop-color="#274454" stop-opacity="0"/></radialGradient></defs><circle class="g" cx="11" cy="11" r="11"/><path class="h" d="M16.9656,19.6765H5.0344a2.7142,2.7142,0,0,1-2.7109-2.7109V5.0344A2.7144,2.7144,0,0,1,5.0344,2.323H16.9656a2.7144,2.7144,0,0,1,2.7109,2.7114V16.9656A2.7142,2.7142,0,0,1,16.9656,19.6765ZM5.0344,4.3368a.6983.6983,0,0,0-.6971.6976V16.9656a.6979.6979,0,0,0,.6971.6971H16.9656a.6979.6979,0,0,0,.6971-.6971V5.0344a.6983.6983,0,0,0-.6971-.6976Z"/></svg>