<svg xmlns="http://www.w3.org/2000/svg" width="18" height="18" viewBox="0 0 18 18"><defs><style>.a{fill:#fecb4d;}.b{fill:#fe7891;}.c{fill:#664500;}</style></defs><path class="a" d="M9.621,18.0031H8.3218c-.2711-.0347-.545-.03-.8164-.059A6.7786,6.7786,0,0,1,5.88,17.5288,8.756,8.756,0,0,1,3.27,16.0448,9.163,9.163,0,0,1,.9957,13.2905a8.9217,8.9217,0,0,1-.9042-2.55,7.94,7.94,0,0,1-.0744-.8883C.0129,9.7949.035,9.7351,0,9.6813V8.4523c.0311-.3065.0256-.6156.0592-.9218A7.372,7.372,0,0,1,.5915,5.5933,8.8792,8.8792,0,0,1,2.9764,2.2346,8.681,8.681,0,0,1,7.5192.0755,10.7624,10.7624,0,0,1,9.583.02a7.4376,7.4376,0,0,1,1.3385.1347A8.9963,8.9963,0,0,1,13.676,1.2549,9.1062,9.1062,0,0,1,17.07,4.9069a8.0051,8.0051,0,0,1,.8587,2.6382,12.9476,12.9476,0,0,1,.0562,2.0642A7.129,7.129,0,0,1,17.8,11.1705a9.14,9.14,0,0,1-6.7235,6.6707,6.86,6.86,0,0,1-1.2668.145C9.7464,17.99,9.6809,17.9672,9.621,18.0031Z"/><path class="b" d="M13.4146,8.7448a2.4841,2.4841,0,0,1,2.1073,0,2.4091,2.4091,0,0,1,1.4415,2.0659,2.4919,2.4919,0,1,1-4.3529-1.45c.0806-.0364.1457.0173.2155.0388a.4251.4251,0,0,0,.5681-.4926C13.3853,8.85,13.3621,8.7931,13.4146,8.7448Z"/><path class="b" d="M5.3678,9.3617A2.4935,2.4935,0,1,1,3.2109,8.53a2.5985,2.5985,0,0,1,1.3524.2143c.0579.055.0258.1175.0165.1792a.4256.4256,0,0,0,.5558.48C5.2107,9.3826,5.2808,9.3217,5.3678,9.3617Z"/><path class="c" d="M8.9382,14.7573a2.7239,2.7239,0,0,1-2.51-1.7222,3.3652,3.3652,0,0,1-.17-.4408.2384.2384,0,0,1,.0862-.2823.2215.2215,0,0,1,.2642-.0184,2.6157,2.6157,0,0,0,1.1885.3872,8.27,8.27,0,0,0,2.809-.0782,2.0437,2.0437,0,0,0,.7292-.2868.251.251,0,0,1,.38.2979A2.8665,2.8665,0,0,1,8.9382,14.7573Z"/><path class="c" d="M7.984,5.5237a.4887.4887,0,0,1-.5775.4844,5.4683,5.4683,0,0,0-2.0221.0562,3.1645,3.1645,0,0,0-1.52.79.499.499,0,1,1-.6863-.7219A4.2143,4.2143,0,0,1,5.5305,5.0145a6.2835,6.2835,0,0,1,1.9574-.0034A.5091.5091,0,0,1,7.984,5.5237Z"/><path class="c" d="M11.4862,4.939a4.8615,4.8615,0,0,1,2.9678.8964,3.4365,3.4365,0,0,1,.3695.3229.49.49,0,0,1,.0245.6946.4785.4785,0,0,1-.6928.0343,4.0565,4.0565,0,0,0-3.357-.907c-.0815.0075-.1624.0206-.2438.03a.4905.4905,0,0,1-.55-.3814.4772.4772,0,0,1,.3489-.5836A4.4689,4.4689,0,0,1,11.4862,4.939Z"/><path class="c" d="M5.3678,9.3617c-.372.251-.7514.15-.8573-.2265a.6046.6046,0,0,1,.0528-.39A2.8562,2.8562,0,0,1,6.5784,7.9a5.3738,5.3738,0,0,1,1.4295.1071.5123.5123,0,0,1,.4733.5831.4983.4983,0,0,1-.6253.4057,4.1752,4.1752,0,0,0-1.6014-.05A1.5244,1.5244,0,0,0,5.3678,9.3617Z"/><path class="c" d="M13.4146,8.7448a.5154.5154,0,0,1-.1719.6923.5229.5229,0,0,1-.6322-.0764,1.7508,1.7508,0,0,0-1.13-.45A4.311,4.311,0,0,0,10.1051,9a.4942.4942,0,0,1-.6-.3758.4782.4782,0,0,1,.364-.5889,4.5407,4.5407,0,0,1,2.6565.1036A2.2691,2.2691,0,0,1,13.4146,8.7448Z"/></svg>