<svg xmlns="http://www.w3.org/2000/svg" xmlns:xlink="http://www.w3.org/1999/xlink" width="22" height="22" viewBox="0 0 22 22"><defs><style>.a{opacity:0.8;}.b{opacity:0.7;}.c{opacity:0.3;}.d{opacity:0.9;}.e,.f{opacity:0.2;}.f{fill:url(#a);}.g{opacity:0.5;}.h{fill:url(#b);}.i{fill:red;}.j{opacity:0.75;}</style><radialGradient id="a" cx="11" cy="10.9994" r="11" gradientTransform="translate(0 0.0006)" gradientUnits="userSpaceOnUse"><stop offset="0.2463" stop-color="red"/><stop offset="0.3337" stop-color="#fc0101" stop-opacity="0.9841"/><stop offset="0.4223" stop-color="#f10405" stop-opacity="0.9363"/><stop offset="0.5115" stop-color="#e00a0c" stop-opacity="0.8566"/><stop offset="0.6011" stop-color="#c81115" stop-opacity="0.7447"/><stop offset="0.6912" stop-color="#a91b22" stop-opacity="0.6005"/><stop offset="0.7815" stop-color="#832730" stop-opacity="0.4239"/><stop offset="0.8703" stop-color="#563542" stop-opacity="0.2192"/><stop offset="0.9534" stop-color="#274454" stop-opacity="0"/></radialGradient><linearGradient id="b" y1="11.0006" x2="22" y2="11.0006" gradientUnits="userSpaceOnUse"><stop offset="0.2162" stop-color="#ff043b"/><stop offset="0.8028" stop-color="#f36"/></linearGradient></defs><g class="a"><circle class="f" cx="11" cy="10.9994" r="10.9997"/><g class="g"><path class="h" d="M11,22A10.9994,10.9994,0,1,1,22,11.0006,11.0122,11.0122,0,0,1,11,22ZM11,1.7314a9.2692,9.2692,0,1,0,9.27,9.2692A9.28,9.28,0,0,0,11,1.7314Z"/></g><path class="i" d="M14,15H8a1,1,0,0,1-1-1v-6a1,1,0,0,1,1-1h6a1,1,0,0,1,1,1v6A1,1,0,0,1,14,15Z"/></g></svg>